<svg xmlns="http://www.w3.org/2000/svg" width="206.854pt" height="135.69125pt" viewBox="0 0 206.85401 135.69125"><g fill="#fc0019"><path d="M2.016 33.058c.171-.302.529-.525.728-.808.157-.204.162-.455.307-.673.39-.57 1.002-1.118 1.35-1.716.218-.38.209-.654.366-1.114.034-.088.224-.222.236-.306.052-.12-.05-.404-.05-.427h.116c.048-.148.093-.288.13-.436h.122v-.302c.069-.199.255-.505.301-.737.064-.27-.12-.599-.17-.798-.157-.58.144-1.04.296-1.355h.117v.186c.566-.065 1.071.097 1.535.236 2.789.845 2.64 2.621 3.3 5.484.25 1.02-.252 1.958-.298 2.886a.3.3 0 0 1 .06.065c.394-.074 1.304-.204 1.781-.065.038.02.19.176.242.186.245-.042.487-.093.737-.121.585-.033 1.216.204 1.708.12.033-.009.194-.11.25-.12.636-.107.886.339 1.526.181.97-.241 1.87-.923 2.636-1.41.376-.237.812-.27 1.225-.502.422-.232.696-.867 1.104-1.164 1.271-.937 2.812-2.306 3.057-4.24-.645-.418-1.044-1.165-1.656-1.597-.376-.273-.83-.362-1.22-.617-.107-.074-.233-.25-.376-.301-.264-.098-.46-.07-.668-.19-.301-.19-.501-.553-.798-.738-.185-.06-.366-.13-.552-.195-.153-.12-.219-.4-.362-.548-.097-.083-.278-.092-.367-.18-.18-.186-.213-.469-.375-.683-.103-.139-.34-.139-.483-.24-.283-.214-.403-.632-.621-.924-.131-.176-.367-.223-.544-.367-.137-.111-.166-.38-.301-.492-.376-.306-.803-.547-1.109-.918-.102-.13-.088-.302-.18-.436-.376-.529-.854-1.03-1.16-1.666-.2-.399-.2-.76-.441-1.1-.395-.602-.877-1.284-1.401-1.776-.297-.288-.715-.557-.928-.928-.27-.539-.055-1.067-.238-1.782-.426-1.767.32-4.032.984-5.354.195-.38.145-.803.367-1.164.111-.177.297-.228.43-.362.243-.283.298-.733.544-.993.204-.204.534-.241.737-.436.136-.13.205-.376.372-.483.515-.357 1.132-.482 1.652-.803.14-.088.237-.32.37-.431.117-.102.302-.093.423-.19.088-.056.17-.144.25-.214H.013v34.658c.538-.292 1.132-.598 1.578-.928.218-.176.283-.417.427-.673zm85.633.426c.097.32 1.41 2.13 1.66 2.274 1.24.728 2.98.872 4.774.867.655.014 1.31.047 1.959.056.157-.037.343-.255.543-.371.343-.167.682-.074 1.053-.246.214-.102.603-.33.853-.427.367-.06.729-.116 1.1-.18.872-.372 1.768-.98 2.566-1.42.39-.21.84-.21 1.229-.428.102-.064.102-.227.185-.315.2-.181.548-.14.789-.302.078-.05.073-.194.126-.246.107-.083.264-.097.366-.18.256-.195.344-.488.552-.738.117-.051.21-.13.307-.186.161-.18.228-.422.366-.621.079-.107.283-.135.371-.237.145-.394.274-.78.432-1.17.088-.143.297-.315.366-.496.13-.385.164-.877.246-1.234v-.858c.14-.645.224-1.276.357-1.972a36 36 0 0 0-.126-1.285c.084-.31.302-.557.376-.798.219-.678-.057-1.406.121-2.153.065-.26.246-.515.302-.733.162-.622-.436-1.03-.302-1.79h-.245c-.233.226-.618.468-1.035.496-.162-.265-.311-.256-.552-.427-.33-.237-.603-.626-.928-.863-.422-.325-.919-.613-1.22-1.049-.33-.482-1.156-2.394-1.527-2.584-.069-.037-.054-.037-.18-.06-.283.25-.72.283-1.049.496-.612.395-1.322.687-2.018 1.04-.083.046-.209.208-.306.245-.334.121-.627.01-.92.13-.49.195-.922.455-1.34.733-.107.107-.204.214-.315.302-.157.032-.316.042-.483.07-.566.218-1.09.69-1.651.914a9 9 0 0 0-.492.074c-.255.125-.859 1.053-1.16 1.29-.343.25-.794.45-1.044.793-.371.529-.543 1.155-.914 1.66-.19.247-.524.321-.677.618-.21.399-.242.807-.487 1.16-.181.18-.367.334-.548.496-.19.25-.264.543-.436.803-.06.037-.112.079-.185.125-.038.288-.084.575-.126.859-.112.43-.233.867-.418 1.29-.292.635-.064 1.433-.25 2.152-.093.39-.335.835-.427 1.17-.171.626.246 1.447.361 1.841.176.534-.152.886 0 1.415zM50.866 19.463c.566.14 1.295.423 1.837.553.632.171 1.118-.144 1.717-.177 1.1-.074 2.315.112 3.303-.13.803-.204 1.592.2 2.39 0 1.067-.26 2.366-.673 3.359-.979.366.024.733.033 1.113.06.344-.097.552-.454.905-.551h.682c.84-.279 1.754-.78 2.686-.984.145.019.288.037.432.065.394-.079 1.002-.311 1.16-.612.264-.39.362-1.082.366-1.67-.176-.2-.111-.33-.482-.363-.152.088-.502.065-.738.051-.057-.111-.078-.088-.12-.236.315-.446-.075-1.763-.377-2.046-.287-.265-.733-.283-.979-.604-.26-.343-1.141-1.331-1.461-1.54-.488-.306-1.007-.408-1.54-.668-.2-.107-.409-.362-.604-.436-.223-.01-.46-.046-.677-.06-.933-.32-1.805-.919-2.807-1.17h-1.475c-.297.214-.724.246-.98.506-.338.306-.57.789-.918 1.095-.224.2-.506.302-.747.492-.306.274-.432.789-.784 1.049-.269.185-.761.38-1.044.482-.246.046-.483.088-.733.125-.543.316-.691 1.007-1.1 1.485-.147.153-.431.111-.607.241-.126.084-1.007 1.081-1.11 1.234-.19.297.127.53-.068.914-.157.177-.32.325-.487.501v.854c-.274.84-1.332 1.3-1.397 2.339h.121c.297.208.747.083 1.165.18zM7.031 134.878c-.352-.232-.417-.729-.733-.98-.233-.194-.552-.25-.798-.435-.51-.4-.95-1.012-1.35-1.54-.116-.168-.306-.182-.482-.298-.126-.097-.15-.269-.247-.376-.23-.26-.514-.398-.797-.616-.339-.265-.525-.692-.798-1.054-.204-.264-.552-.366-.789-.603-.176-.167-.126-.45-.246-.682-.147-.25-.468-.478-.612-.733-.07-.125-.117-.264-.167-.408v8.537h8.83c-.413-.205-.798-.427-1.193-.622-.204-.07-.413-.125-.617-.19z"/><path d="M179.299 0a5.8 5.8 0 0 1 1.22 1.754c.038.436.07.863.121 1.295.065.227.205.39.186.798-.029.273-.038.533-.06.802.098.464.195 1.531.06 2.088-.074.32 0 .803-.13 1.104-.08.241-.376.464-.488.682-.209.413-.18.822-.366 1.23-.145.306-.548.589-.668.923l-.072.742c-.17.613-.329 1.248-.547 1.893-.13.395-.454.937-.607 1.295-.167.413-.083.816-.242 1.303-.147.404-.46.914-.608 1.346-.033.306-.059.608-.068.928-.098.237-.395.431-.501.728-.371 1.118-.339 2.427-.608 3.624.024.236.043.454.064.677-.246 1.16-.83 2.478-1.17 3.628-.101.385-.101.766-.18 1.044v.808c-.038.111-.204.301-.232.426-.107.413.12.956 0 1.415-.06.182-.247.395-.316.548-.038.26-.074.496-.121.747-.074.227-.292.422-.366.612-.126.279-.024.525-.126.854-.038.163-.214.376-.246.496-.074.251.088.427.116.557-.024.422-.028.859-.052 1.29-.233 1.016-.371 2.018-.613 3.007-.166.672.131 1.415.19 1.85 0 .186-.147.632-.19.79-.228.946-.078 1.939-.556 2.584-.186.269-.524.361-.85.505-.223.089-.533.297-.797.358-.785.199-2.056-.71-2.325-1.1-.126-.176-.126-.376-.246-.552-.147-.12-.287-.246-.436-.371-.273-.395-.529-1.592-.663-2.093-.064-.209.033-.556.054-.682.088-.366.065-1.378-.054-1.767-.14-.409.102-.78-.064-1.304-.117-.334-1.03-1.332-.914-1.717.05-.218.366-.431.482-.608.157-.232.353-.742.432-.997.14-.469 0-1.04.241-1.41.362-.223.561-.052.557-.673.269-.45.422-1.536.547-2.088v-.622c.05-.153.214-.376.246-.552.07-.371-.126-.858 0-1.29.121-.426.413-.895.552-1.29.157-.454-.064-.765.06-1.169.111-.38.422-.932.552-1.294v-.923c.111-.53.097-1.114.241-1.712a89 89 0 0 1 1.239-4.737c.024-.372.028-.743.05-1.105.047-.176.246-.334.306-.5.2-.571.107-1.193.306-1.731.136-.334.44-.307.483-.79-.093-.115-.185-.412-.117-.672.214-.793.432-1.67.673-2.459.13-.426.432-.877.547-1.29.172-.575.117-.965.307-1.48.147-.403.454-.774.552-1.224.126-.548-.14-1.049 0-1.661.204-.826.297-1.88.463-2.868H36.473c.107.116.2.219.247.344v.491c.069.214.292.385.362.673.166.682-.279 1.304-.117 1.847.052.195.301.301.357.492v1.72c.293 1.982-.348 2.822-1.405 3.82-.478-.094-1.049-.075-1.476-.251-.264-.116-.306-.293-.788-.302-.15.2-.45.237-.604.427-.073.084-.097.325-.185.371h-.738c-.152-.18-.32-.334-.612-.371-.228.241-.538.51-.98.543-.347-.255-.713-.344-.857-.784-.093-.288.06-.66-.05-.863-.274-.25-.845-.12-1.17-.316-1.136-.677-1.758-1.614-2.083-3.136-.097-.422.112-.659.126-1.104-.52-.237-.988-.687-1.535-.859-.59-.19-2.59.325-3.053.437-.645.157-1.109.037-1.721.236-.126.042-.33.213-.492.255-.288.06-.682-.023-1.044.116-.622.242-1.155.79-1.647 1.179-.13.088-.316.12-.432.232-.052.06-.7 1.169-.737 1.239-.038.218-.074.445-.121.668-.186.426-.539.82-.669 1.368-.329 1.262.44 2.153.729 2.882.157.361.097.756.31 1.043.224.288.326.65.557.988.176.26.557.414.729.66.066.17.116.347.18.5.21.302.664.53.919.799.042.115.083.208.12.31.362.32.725.483 1.17.733.162.172.325.325.492.497a57 57 0 0 1 2.088 1.66c.17.158.472.158.668.302.14.116.145.39.3.501.706.474 1.625.562 2.33 1.035 2.084 1.42 4.617 2.492 6.05 4.556.18.26.571.344.738.622.91 1.429 1.972 3.85 1.36 6.017-.136.418-.024.831-.19 1.17-.112.213-1.18 1.61-1.35 1.72-.21.07-.409.126-.613.191-.219.162-.255.585-.487.738-.204.06-.413.125-.613.18-.672.372-1.48.891-2.264 1.105-.102.775-.417 1.647-.918 2.032-.107.07-.284.088-.372.186-.092.097-.069.343-.18.422q-.21.035-.427.07c-.219.078-.469.347-.673.422-.237.028-.487.046-.737.074-1.453.413-3.216.844-4.775 1.23-.538.115-1.011.143-1.466.231-.18-.004-.376-.042-.552-.065-.283.093-.408.413-.617.562-.301.213-1.23.626-1.837.427-.729-.232-1.814-1.17-2.209-1.777-.059-.135-.023-.367-.111-.487-.131-.033-.25-.089-.372-.121-.232-.172-.329-.566-.607-.687-.358-.158-.72-.024-1.044-.185-.223-.103-.297-.418-.487-.548-.121-.024-.247-.032-.372-.065-.111-.083-.092-.297-.18-.422-.083-.12-.344-.084-.432-.195-.092-.107-.033-.32-.116-.427-.185-.25-.673-.436-1.049-.496-.147.171-.412.26-.552.445-.413.548-.751 1.086-1.16 1.647-.14.13-.287.246-.426.367-.043.13-.084.25-.122.38-.156.232-.468.469-.621.733-.024.098-.024.209-.062.307-.055.014-.116.041-.18.06-.103.148-.195.287-.302.427-.121.088-.325.078-.432.185-.102.112-.088.32-.18.432-.088.046-.157.088-.241.12-.157.228-.083.525-.18.803-.07.14-.251.241-.311.367-.238.58-.162 1.261-.733 1.48-.18.111-.414.032-.618 0-.106.324-.092.44-.542.431-.228-.162-.534-.135-.803-.246-.292-.12-.863-.543-1.049-.802-.116-.186-.166-.404-.218-.627v34.611c.38-.436 1.095-.677 1.387-1.145.148-.237.353-.636.427-.873v-.798c.116-.278.436-.603.552-.849.029-.162.043-.338.06-.496.106-.302.39-.692.491-.984.067-.292.121-.575.18-.872.22-.418.534-.919.683-1.397.273-.927-.292-1.322-.552-1.85-.293-.576-.395-1.253-.362-1.968.135-.125.274-.246.422-.371q.606.091 1.225.19c.274.12.269.33.724.367.403-.45.82-.984 1.048-1.601.078-.348.161-.705.242-1.044.223-.44.612-.83.858-1.23.12-.194.069-.403.19-.612.102-.209.455-.31.534-.5v-.497c.028-.028.385-.645.436-.729.233-.343.77-.584.979-.928.156-.25-.079-.529.069-.798.204-.38.895-1.178 1.038-1.53.145-.395 0-.854.186-1.175.436-.723 1.006-1.443 1.466-2.148.152-.227.152-.529.315-.742.297-.432.873-.863 1.155-1.29.534-.793.835-1.907 1.29-2.76.055-.195.121-.376.176-.562.147-.171.394-.065.608-.18.255-.13.473-.52.738-.683.185-.097.38-.014.607-.116.33-.134.942-.515 1.23-.737.812-.02.78.134 1.225.375.2.033.408.089.617.121.422.167.63.664.844 1.04.029-.02.048-.038.069-.056.278-.186.45-.427.858-.492.292.292.91.951 1.41.984.534.324 1.541 0 2.205.18.659.177 1.55.25 2.138.548.157.19.33.37.492.561.691.7 1.712 1.573 1.285 3.007q-.058.348-.13.682c-.284.515-1.063.95-1.648 1.164-.533.2-1.104.135-1.35.608-.918 1.21.622 3.206.622 4.491-.069.784-.13 1.559-.19 2.339-.088.268-.403.538-.487.807v.928c-.038.162-.162.538-.19.672v1.657c-.117.603-.241 1.387-.117 2.027.256.149.488.446.734.557.357.056.728.125 1.104.19.147.065.278.246.487.297.496.024.97.047 1.461.06.344.116.53.51.812.683.279.078.566.157.85.245.658.409.946.886 1.224 1.722.126.366.515.756.371 1.35-.399 1.568-2.454 1.86-4.161 2.092-.539-.065-1.067-.13-1.596-.185-.33.083-.808.273-1.17.366-.482 1.582-.422 3.536-.793 5.164-.024.673-.036 1.345-.055 2.037.024.139.043.283.055.422-.112.44-.482 1.076-.603 1.475-.166.506.024 1.03-.136 1.485-.37 1.155-1.967 3.076-3.368 3.127-.58-.598-1.814-1.007-2.264-1.66q-.152-.425-.297-.868c-.241-.362-.636-.701-.798-1.156a19 19 0 0 1-.121-.807c-.176-.385-.473-.914-.622-1.35-.024-.2-.038-.408-.055-.617-.135-.446-.39-.817-.426-1.415.209-.107.445-.125.788-.116.19.106.34.01.437-.126.454-.598.185-1.456.422-2.338.135-.464.376-.96.491-1.355.065-.431.122-.853.181-1.294.097-.26.501-.817.371-1.225-.033-.125-.185-.431-.25-.612-.488-.265-.594-.01-1.151-.13-.91-.19-2.594-.4-3.614-.177-.664.144-1.833.26-2.57.056-.311-.079-.947-.088-1.29-.237l-.307-.306c-.375-.25-1.132-.348-1.656-.25-.083.25-.157.496-.241.737-.145.228-.45.386-.543.678-.034.366-.04.728-.065 1.1-.12.408-.5.533-.375 1.053-.18.26-.353.533-.552.802q-.056.453-.112.919c-.147.134-.292.283-.436.417-.145.4.024.775-.117 1.119-.524 1.387-1.322 2.71-1.832 4.18-.246.686.223 1.21.054 1.972-.18.774-.273 1.744-.366 2.519-.394.134-.404.455-.673.677-.371.093-.738.2-1.104.311-.863.2-.891-.366-1.285-.57-.283-.121-.627-.065-.86-.242-.023-.01-.025-.042-.04-.05v28.166c.148-.404.274-.798.418-1.118.214-.57.145-1.225.362-1.786.102-.265.325-.557.418-.858.18-.497.078-1.054.315-1.476.14-.26.39-.575.492-.928.161-.51.121-.983.362-1.406.083-.134.297-.278.366-.431.145-.306.145-.594.306-.858.162-.154.293-.284.432-.427.464-.882.584-1.898 1.044-2.775l.974-1.23c.209-.157.464-.166.617-.37.14-.195.162-.47.306-.678.26-.348.7-.622.975-.983.269-.34.306-.83.552-1.174.264-.232.524-.487.793-.733.21-.293.344-.576.622-.789.135-.125.352-.125.487-.246.872-.835 1.712-1.856 2.76-2.524 1.63-1.04 3.74-1.62 5.805-2.218h1.405c1.184 0 2.552.056 3.494.367.27.093.613.33.854.501.102.12.209.237.31.357h1.035c.14-.083 1.912-.023 2.144.07.17.065.408.26.617.306.668.181 1.011.153 1.531.436.297.144.418.497.677.678.849.584 2.302 1.781 2.501 2.95.102.576-.325 1.332-.487 1.717-.097.227-.045.496-.185.673-.45.608-2.19 1.438-3.555 1.109-.245-.08-.482-.172-.728-.237-1.174.074-3.298.125-3.916-.626-.63-.757-1.452-3.086-2.199-3.447-.195-.135-.394-.047-.677-.112-.136-.037-.418-.153-.552-.19h-3.067c-.51.167-1.026.719-1.466.984-.316.19-.57.19-.919.366-.255.135-.515.575-.798.682-.69.274-1.568.107-2.194.436-.25.125-.487.524-.678.724-.71.724-1.55 1.665-1.957 2.644-.14.32-.074.701-.242.993-.14.228-.44.344-.566.603a14 14 0 0 1-.241.928c-.185.307-.51.571-.668.924-.157.352-.117.835-.367 1.104-.241.264-.677.292-.547.919.05.306 0 .97.126 1.299.125.39.64.63.487 1.35-.33 1.34-1.128 1.99-1.652 3.076-.024.162-.045.33-.074.492-.26.997-.116 1.331.136 2.273.083.348-.034.923-.06 1.164-.038.19.186.868.238 1.114.214.933-.283 2.195.06 3.006.092.2.38.362.5.557.14.39.279.789.427 1.16q.081.042.171.07c.274.227.478.584.742.802.103.084.27.084.367.186.157.153.195.413.357.552.219.163.53.27.682.487.148.21.195.446.371.613.238.25.66.468.98.617h.185c.033.083.078.167.116.24.265.284.683.66 1.04.818.422.171.798.05 1.34.176 1.573.357 3.62.431 5.086 0 .399-.02.774-.042 1.169-.056.135-.06.96-.612 1.039-.747.209-.339.195-.742.492-.988.14-.107.283-.135.427-.241.287-.228.473-.65.788-.859.613-.399 1.355-.529 1.907-.983.877.176 1.726.877 1.833 1.842.733.097.668.65 1.104.983.233.088.45.158.673.246.237.167.43.51.673.682.39.26.955.404 1.225.789.166.241.092.547.19.863.054.25.25.872.054 1.174-.107.292-.32.352-.492.556-.135.149-.12.38-.246.552-.398.548-1.494.947-2.078 1.36v.005h14.953c-.047-.028-.088-.065-.13-.07l-.441-.07a4.1 4.1 0 0 1-1.04-.737c-.078-.093-.144-.293-.232-.367-.274-.195-.678-.158-.924-.362-.315-.283-.417-.69-.677-1.048-.078-.107-.204-.107-.297-.186-.445-.343-.998-.942-1.295-1.42-.12-.32-.24-.654-.361-.974-.185-.31-.557-.515-.738-.807-.126-.204-.023-.436-.135-.673-.157-.399-.529-.789-.664-1.225-.209-.751-.023-1.526-.064-2.343-.023-.208-.038-.413-.06-.617.056-.18.26-.357.307-.557.05-.872.083-1.758.121-2.64.074-.255.241-.57.315-.858.172-.733.136-1.642.302-2.278v-.608c.185-.747.469-1.59.678-2.398.135-.576.073-1.425.3-1.921.08-.172.321-.376.433-.543.306-.515.306-1.113.543-1.716.12-.279.436-.53.556-.812.167-.367.186-.836.427-1.16.055-.075.25-.112.31-.181.155-.21.155-.515.307-.738.255-.418.682-.807.979-1.174.334-.422.487-.914.793-1.35.053-.083.845-.932.915-.984.106-.083.232-.083.31-.185.492-.654.965-1.313 1.471-1.967.292-.376.807-.594 1.1-.989.228-.315.408-.593.682-.853.46-.469 1.123-.682 1.642-1.118.404-.334.71-1.132 1.104-1.406.984-.682 1.624-.682 2.998-.984 1.35-.301 2.45.729 3.553-.055a5.6 5.6 0 0 1 1.35.11c.938.233 1.912-.106 2.687.196.937.352 1.874.97 2.816 1.345h.552c.469.135 1.591.395 1.838.794.468.788.394 2.616.612 3.628.274.139.807.515.923.812.233.385-.408 1.36-.126 2.088.436.264.918.51 1.285.863.024.264.038.529.064.788-.204.195-.32.524-.547.682-.385.25-.886.158-1.053.608-.112.144-.122.227-.06.311.353.422.988.38 1.596.552.483.144.687.431 1.044.622.566.306 1.193.273 1.466.858.575 1.257-.524 2.422-1.415 2.71-.348.11-.714-.024-1.095.11-.27.103-.705.637-.988.808-.413.27-1.002.177-1.531.371-.395.14-.7.45-1.095.557-.166.042-.409-.05-.497-.07-.413-.097-1.257.033-1.647.126-.264.074-.524.162-.798.241-.473-.032-1.035-.19-1.531-.241-.18-.015-.612.125-.91.056-.328-.07-.774-.293-1.224-.181-1.401.366-3.498.598-4.964.43-.246-.027-.757.07-.984.13-.209.038-2.092-.175-2.32-.245-.413-.14-.904-.436-1.34-.561-.311-.028-.622-.042-.92-.065-.24-.089-.417-.404-.616-.548-.343-.236-.845-.44-1.04-.807-.151-.25-.111-.469-.31-.677-.065-.01-.117-.033-.18-.047-.252-.334-.28-.988-.79-1.058-.228.984-.95 1.304-1.424 1.981-.065.093-.024.228-.112.302-.18.144-.422.176-.548.371-.111.153-.366 1.086-.431 1.29-.157.464.057 1.067-.055 1.6-.246 1.077-.157 1.652.055 2.696.13.705-.497 1.443-.25 2.338.213.743.524 1.634.737 2.46.145.575-.204.723-.306.988-.2.492-.083 1.123-.06 1.656.302.246.483.858.733 1.049.474.167.942.324 1.411.5.278.284.566.567.854.85.477.357 1.043.83 1.596 1.048.436.181 1.392.02 1.707-.18.088-.103.162-.21.241-.312.743-.385 1.355-.334 1.907-.913 1.555-.02 1.04.695 1.712 1.29.157.13.367.115.548.236.25.176.408.487.742.612.622.27 1.308.325 1.772.743.228.213.483.737.733.988a2.2 2.2 0 0 1-.65 1.485h21.64c-.803-.52-1.633-1.253-1.838-1.791q-.055-.807-.111-1.601c-.024-.083-.166-.292-.195-.376v-1.35c-.05-.292-.306-.728-.176-1.23.13-.477.446-.946.562-1.475.038-.246-.155-.575-.19-.793-.107-.492.106-.7 0-1.17-.2-.876-.353-2.342-.195-3.26v-1.295c.092-.334.2-.775.385-1.044.287-.455.71-.497.91-1.17.144-.505 0-.927.12-1.475.228-.956.316-1.981.501-2.955-.024-.404-.055-.817-.064-1.23.088-.338.274-.807.366-1.225v-.728c.107-.376.334-.803.427-1.174.093-.39-.038-.737.121-1.048.038-.084.21-.21.241-.307.029-.232.053-.45.067-.672.18-.72.297-1.415.552-2.097.166-.46.501-1.003.668-1.415.25-.557.111-1.128.31-1.782.089-.27.229-.72.307-1.044.13-.594-.14-1.786.116-2.222.103-.311.27-.362.497-.548 1.438.014 2.324.622 2.756 1.666.033.232.078.482.12.742.06.102.256.288.302.422v.678c.107.403.423.654.562.979.19.51.126 1.457.237 1.971.26.181.307.34.742.367.238-.079.483-.172.734-.241.301-.195.607-.538.914-.743.608-.399 1.28-.57 1.958-.927.482-.242 1.025-.608 1.53-.859.247-.037.492-.083.734-.116.552-.176 1.266-.46 1.841-.626.367-.01.729-.028 1.095-.056 1.453-.348 3.47-.44 4.9 0 .608.19.784.659 1.22.993.385.274.802.246 1.225.483.418.245.715.788 1.114 1.043.422.293.941.223 1.4.441.381.186 1.759 2.144 1.894 2.64.023.353.052.691.064 1.049.31 1.002.431 2.719.17 3.925.053.728.094 1.433.141 2.157-.278.96-1.016 1.55-1.294 2.529.028.584.04 1.183.064 1.768-.093.394-.27.881-.371 1.238-.024.446-.039.896-.055 1.35-.024.075-.166.25-.185.311-.034.38-.074.775-.117 1.165-.195.538-.64 1.034-.802 1.6-.024.246-.038.488-.057.743-.136.44-.353.881-.497 1.345-.024.2-.04.408-.06.617-.268.752-.95 1.425-1.345 2.088-.529.886.246 2.343-.488 3.262a3 3 0 0 1-.486.376h-.255c-1.165.542-1.22.283-2.14-.246-.3-.112-.616-.21-.913-.311-.469-.395-1.42-2.645-1.225-3.517-.233-.608-.432-1.183-.427-2.083-.352-.227-.46-.738-.677-.923-.506-.413-.696.115-.678-.984.534-.19.404-.835.798-1.1.246-.18.947-.236 1.23-.37.06-.576.334-1.036.478-1.476.235-.673.376-1.378.566-1.972.05-.39.126-.78.18-1.17.038-.097.219-.32.246-.426-.024-.288-.052-.585-.069-.858.176-.673.576-1.234.743-1.847v-.622c.18-.793.301-1.893.547-2.644.195-.594-.097-1.406.06-2.097.209-.928.218-1.313-.06-2.144-.052-.33-.078-.654-.121-.983-.445-1.035-1.188-1.318-2.144-1.838-.417-.241-.732-.742-1.164-.928-.357-.153-.951.033-1.29 0-.408-.046-1.169-.278-1.651-.115-.59.185-1.541.77-1.893 1.229-.162.209-.27.524-.497.677-.283.195-.598.177-.918.362-.492.293-.655 1.077-1.1 1.415-.436.33-1.155.339-1.466.798-.529.766-.696 1.759-1.285 2.46-.255.296-.896.44-1.095.862-.048.283-.088.57-.13.858-.148.506-.479 1.063-.609 1.54v.99c-.126.5-.223 1.075-.427 1.6-.135.278-.445.38-.626.617-.264.357-.264.932-.538 1.34-.18.265-.51.367-.617.738-.121 1.067-.246 2.13-.362 3.197.097.594.145 2.148 0 2.77-.093.376-.622 1.995-.547 2.269.05.26.324.552.417.802.26.743.357 1.355.724 1.967.204.311.58.478.686.868.14.501-.097 1.063-.185 1.406v.561c-.152.483-.608 1.09-1.062 1.425h36.555c-.445-.887-.645-2-.9-2.965-.238-.854.26-1.652.116-2.269-.023-.12-.152-.394-.176-.5v-.915c-.144-.529-.352-1.04-.38-1.67.292-.02.478 0 .868 0a6 6 0 0 0 .362-.432c.038-.334.088-.686.13-1.034.065-.204.241-.404.297-.617.045-.409.093-.817.121-1.23.048-.144.205-.376.246-.496.157-.464.07-.9.256-1.355.102-.26.385-.436.482-.742.024-.283.038-.566.064-.854.024-.083.167-.288.18-.371.07-.293-.073-.613-.12-.798-.088-.395.092-1.225.185-1.592v-1.173c.152-.599.348-1.37.487-1.972-.024-.348-.038-.696-.054-1.035.232-1.02.589-2.324.361-3.512-.923-.404-2.296-.167-3.308-.487-.454-.158-1.637-.64-2.013-.923-.265-.19-.478-.553-.738-.743-.195-.13-.445-.176-.552-.376a9 9 0 0 1-.677-1.461c-.107-.348-.038-.608-.18-.933-.113-.246-.381-.338-.493-.793.024-.408.034-.821.065-1.23-.103-.45-.312-.788-.372-1.294.205-.13.376-.404.608-.496.46-.154 1.234.139 1.661.246.432.055.858.092 1.285.13.423.148.817.538 1.23.672.2.028.399.047.612.056.293.12.631.399.97.501.937.278 2.45-.125 3.248-.306.17-.371.529-.608.677-.924.024-.162.033-.329.06-.496.102-.283.315-.677.427-.984.033-.283.088-.57.13-.862.117-.353.38-.775.483-1.1v-.984c.078-.315.269-.724.37-.983.252-.747-.37-1.963-.068-2.46.157-.56.57-.992 1.28-.992.585.515 1.504-.176 2.214 0 .76.209 1.23.881 1.837 1.239.102.023.214.032.297.06.404.39.385.979.556 1.591.062.214.251.478.302.678.265.9 0 2.152-.233 2.84-.121.296-.664 1.887-.557 2.078.224.654 1.843 1.1 2.575 1.299.2.014.404.046.608.065 1.313.52 2.937 1.846 2.937 3.688-.52.362-.849 1.077-1.47 1.346-.2.028-.405.037-.604.07-.2.06-.39.296-.617.366-.427.125-1.466.093-1.842 0-.121-.037-.278-.172-.487-.12-1.132.199-3.415.76-3.916 1.47-.157.213-.073.385-.18.677-.06.177-.302.367-.367.548-.074.598-.166 1.197-.255 1.781-.166.53-.631 1.16-.798 1.726-.157.617.427.914.19 1.54-.394 1.03-.464 2.367-.673 3.62l.19 1.545c-.064.435-.269 1.818-.126 2.282.06.195.32.376.238.733-.033.19-.204.483-.238.677.024.228.034.446.06.673-.074.334-.126.757-.246 1.105-.098.245-.325.542-.427.797-.04.228-.088.45-.121.673-.195.441-.604.603-.738 1.174-.2.817.325 1.28.18 1.912-.208.923-.589 1.67-.797 2.524a83 83 0 0 0-.05 1.716 6 6 0 0 0-.098.38h18.828a41 41 0 0 1-1.35-.932c-.19-.153-.246-.478-.427-.622-.52-.394-1.114-.751-1.466-1.285-.678-1.002-1.234-1.986-1.842-3.085-.078-.125-.302-.265-.367-.422-.228-.557.024-1.24-.126-1.907-.14-.705-.166-2.167.055-2.886.152-.469.464-1.007.617-1.406.186-.51-.073-.849.06-1.364.14-.506.408-.965.552-1.415.038-.325.083-.65.13-.984.043-.185.186-.445.242-.612.024-.367.043-.733.064-1.109.185-.659.59-1.4.859-1.972.18-.394.092-.84.297-1.229.05-.111.255-.278.31-.427.176-.506.136-.9.297-1.42.093-.24.283-.491.38-.733.108-.343.046-.668.181-.988.228-.534.631-1.109.914-1.591.116-.372.246-.743.367-1.114.31-.52.816-1.132 1.16-1.652.343-.524.398-1.15.737-1.66.311-.474.844-.836 1.16-1.29.166-.246.21-.501.376-.743.2-.292.608-.426.854-.677.338-.33.505-.636.918-.923.171-.13.185-.307.31-.488.317-.473.887-1.14 1.342-1.475.278-.2 1.967-.76 2.51-.622.204.065.413.284.798.186.17-.032.45-.195.673-.241h1.466c.25-.08.487-.339.742-.432.27-.097.585-.028.789-.176 1.15-.032 2.853.432 3.308 1.104.228.33.152.692.487.914.696.46 1.819.682 2.2 1.41.333.632-.117 1.314-.176 1.968.616.204.992.918 1.59 1.178.418.177.748.01.92.422.237.316.329 1.41.185 1.856-.05.14-.265.344-.311.483-.131.431.17 1.582.241 1.902.166.728-.301.89-.348 1.42.395.496.673 1.164 1.271 1.47.617.33 1.494.168 2.079.492.506.293.896 1.508.854 2.218-.316.264-.46.83-.724 1.049-.72.575-2.037.97-2.997 1.224h-.984c-.678.158-2.58.186-3.243 0-.51-.134-1.141-.677-1.837-.482-.525.13-1.16.348-1.777.482-.789.177-1.805-.023-2.445.126-.72.153-1.165-.316-1.907-.126-.265.075-.668.413-.984.38-1.415-.148-2.95-.89-4.092-1.354-.39-.167-.747-.111-1.164-.25-.497-.167-.664-.613-1.346-.492-.246.63-.612 1.136-.867 1.716-.233.613-.274 1.1-.478 1.722-.13.408-.432.774-.548 1.178-.043.395-.092.812-.13 1.225-.084.371-.279.807-.362 1.109-.265.826-.07 2.116-.07 3.006 0 .882-.547 2.028-.3 2.705.296.845 1.104 1.012 1.776 1.47.078.061.766.525.789.562.175.214.218.571.44.738.414.302 1.379.766 1.894.923h.552c.51.12 1.327.552 2.018.367 1.443-.367 2.844-.859 4.338-1.216.77-.2 2.612-.32 2.886.228.152.269-.102.863 0 1.303.055.27.223.631.185.85-.145.788.441 1.646.214 2.417h15.645c-.057-.116-.136-.223-.19-.325-.26-.436-.869-.756-1.04-1.28v-1.184c-.102-.468-.26-1.378-.13-2.009.13-.556.454-1.475.25-2.231-.033-.121-.209-.307-.25-.418v-1.42c-.152-.5-.534-.417-.538-1.173.347-.348.937-.687 1.22-1.1.292-.418.116-.923.301-1.485.083-.26.376-.561.492-.784.06-.292.116-.589.185-.858.06-.167.293-.353.367-.492.043-.236.083-.46.12-.691.084-.163.293-.418.367-.613.126-.329.024-.644.126-1.044.06-.236.236-.547.297-.797v-.683c.18-.728.25-1.716.436-2.51v-.626c.093-.297.367-.63.496-.923.034-.302.074-.613.112-.923.13-.325.334-.882.441-1.23v-.431c.152-.441.468-.952.603-1.467.147-.598-.024-1.145.121-1.786.228-.918.344-2.074.553-2.95.185-.78-.21-1.545.301-1.972.422-.34 1.29-.14 1.717 0 .747.26 1.665.436 1.962 1.104.024.172.043.334.052.506.074.162.316.306.371.487.071.557.126 1.104.19 1.656h.06c.422-.39.927-.914 1.41-1.23.283-.176.612-.143.918-.306.372-.195.757-.552 1.17-.737.436-.103.886-.204 1.327-.302.552-.232 1.09-.622 1.665-.807.492-.149.784-.149 1.285-.311.246-.074.548-.292.798-.362.413-.13 1.012.037 1.346-.186 1.067-.023 2.515-.097 3.359.186.367.12.668.44 1.044.543.32.097.663-.028.923.07.455.194.868.63 1.34.793.59.227 1.096.195 1.648.436.422.181.78.538 1.113.798.228.18.553.2.734.431.194.265.237.594.431.873.185.283.561.538.733.853.228.413.024 1.03.185 1.54.043.144.26.284.297.428.167.477-.17 1.364-.357 1.6-.361.334-2.389.965-3.308.673-.357-.111-.728-.422-1.044-.561-.204-.033-.412-.075-.612-.112-.288-.172-.44-.515-.677-.742-.27-.274-.747-.343-1.105-.552-.626-.376-1.22-1.03-1.823-1.425-.557-.334-1.457-.334-2.027-.672-.594-.339-.984-1.077-1.713-1.286-1.066-.315-1.8.497-2.449.673-.654-.019-1.309-.041-1.963-.055-.426.102-.909.296-1.34.431-.539.153-1.11.06-1.286.547-.12.362-.255.738-.375 1.114-.07.116-.307.529-.418.612-.288.195-.608.219-.803.492a3.5 3.5 0 0 0-.487 1.11v.542c-.078.241-.348.436-.422.622-.126.218-.31 1.545-.25 1.841.033.186.18.478.111.738-.029.186-.147.427-.112.678.029.153.15.621.06.863-.04.139-.255.236-.307.362q-.061.94-.125 1.846c-.27.914-.636 2.027-.854 3.071-.088.464.315.812.195 1.425-.083.334-.284 1.55-.195 1.907.038.106.176.232.116.487-.097.51-.33 1.396-.17 2.153.05.264.199.682.11 1.043-.259 1.17-.426 2.72-.974 3.624-.125.32-.241.659-.366.988-.274.455-.742.761-.984 1.3-.209.482-.209 1.117-.385 1.605h32.116V0h-27.56m-96.3 27.397v-.918c.025-.093.17-.307.186-.372q.035-.516.06-1.053c.102-.255.454-.594.551-.854a10 10 0 0 1-.05-.742c.074-.255.372-.594.478-.854.38-.89.603-1.753 1.104-2.519.367-.58.928-1.086 1.295-1.665.436-.724.747-1.448 1.216-2.158.156-.246.668-.2.853-.422.055-.167.13-.334.18-.496.376-.395.85-.706 1.29-1.04v-.13c.229-.157.52-.139.734-.306.232-.18.232-.622.491-.798 1.207-.826 2.548-1.554 3.795-2.334.543-.334 1.388-.445 1.893-.617.715-.246 1.48-.76 2.144-1.044.348-.088.7-.162 1.04-.24a57 57 0 0 1 2.514-.868c.752-.246 2.167-.042 2.756-.437.348.047.557.228.798.311h.793c1.197.302 2.343.562 2.63 1.791.141.617-.43.9-.551 1.295-.122.427.078.853 0 1.234-.39.134-.65.58-1.035.719-.302.12-.83.065-1.104 0-.835.023-1.68.056-2.51.065a2 2 0 0 0-.064.31c.2.112 2.073.683 2.329.613.145-.037.566-.037.696-.088.269-.047.756-.093 1.025-.12.185-.066.348-.335.53-.395.454-.158.547-.237 1.001-.44.176-.08.441-.312.668-.381 1.021-.246 2.72.918 3.429 1.127.617.162 1.396.005 1.958.237.362.153 1.192 1.475 1.224 1.972-.237.236-.245.621-.435.928-.181.296-.887 1.048-1.216 1.215.074.334.33.538.427.807v.798c.145.144.278.283.422.432.385.557.59 1.192.733 1.962.112.548-.274.733-.297 1.23.45.343 1.142 1.192.914 2.153-.047.2-.255.566-.25.742.023.413.199 1.545.12 1.911-.092.525-.528.97-.733 1.411-.12.269-.092.529-.232.793-.19.334-.65.51-.863.803-.525.724-.692 1.698-1.22 2.399-.167.218-.404.19-.622.366-.214.172-.195.404-.487.557v.06c-.325.153-.775.163-.98.422-.208.283-.273.599-.551.808-.302.222-.636.375-.854.677-.25.339-.51.752-.854.979-.157.074-.33.125-.492.195-.145.186-.287.357-.427.552h-.37c-.381.125-.655.561-1.036.733-.37.167-.774.32-1.103.427-.162.024-.334.042-.492.06-.098.051-.112.204-.176.25-.566.404-1.1.929-1.721 1.23-.348.047-.706.074-1.044.121-.409.111-.808.325-1.22.427a51 51 0 0 1-1.16.055c-.492.149-.98.302-1.471.446-.691.162-1.573 0-2.144-.06-.269.037-.538.078-.793.11-.84-.152-2.06-.157-2.821-.366h-1.03c-.27-.065-1.267-.283-1.54-.245-.32.055-.85.115-1.23 0-.092-.029-.228-.214-.292-.242-.747-.33-1.424-.482-2.037-.918a24 24 0 0 0-.547-.618c-.274-.273-.687-.491-.914-.798-.27-.366-.464-.737-.734-1.113-.135-.172-.366-.227-.547-.357-.357-.27-.255-.664-.496-.928-.162-.195-.473-.283-.608-.492-1.364-2.027-1.684-5.786-.924-8.305m-19.778 34.37h-1.517c-.279.06-.585.176-.928.065-.663-.227-1.276-.775-1.837-1.109a16 16 0 0 0-.668-.241c-.102-.06-.265-.274-.362-.31l-.868-.126c-.054-.065-.13-.125-.18-.186-.942-.403-3.239-.612-3.61.427-.288.39-.185.984-.431 1.42-.157.297-.585.357-.859.552-.273.195-.366.561-.547.868-.145.222-.436.301-.608.491-.357.353-.306.984-.306 1.717.274.46-.024 2.431-.185 2.71-.21.352-.752.445-1.044.723-.224.237-.348.631-.613.817-.348.223-.737.264-1.104.487-.279.176-.2.599-.362.923-.18.334-.348.784-.547 1.17-.121.106-.25.236-.38.366v.677c-.098.478-.108 1.04 0 1.476 0 .427-.034.858-.05 1.28.028.13.175.246.12.497-.052.222-.194.635-.237.863-.093.32.078.756.055.979-.034.264-.288.552-.186.918.064.232.288.455.367.687.218.65.264 1.401.427 2.083v.44c.045.098.223.233.246.367.073.297-.145.4-.181.548-.083.325.185.696.238.923-.034.33-.07.659-.122.993.07.278.339.529.436.789.112.31-.092.399 0 .747.13.529.409 1.35.126 2.027-.228.543-1.401 1.234-2.023 1.346-.185.037-.478-.144-.617-.177-.427-.11-.914.051-1.285-.065-1.16-.366-1.665-1.327-2.264-2.273-.219-.353-.636-.501-.678-1.04-.204-.352.052-1.03-.054-1.484-.171-.691-.344-1.614-.25-2.644.028-.325.16-.933.063-1.346-.18-.77-.547-1.424-.742-2.157-.157-.645.038-1.253-.112-1.958-.107-.497-.152-1.42 0-1.916.19-.687.89-.734.988-1.29-.145-.255.145-.775.238-1.044.13-.39.422-.89.31-1.415-.037-.125-.125-.316-.135-.492.029-.246.043-.496.062-.742-.145-.701.157-1.43.31-1.958v-1.295c.03-.055.167-.24.181-.306v-.747c.069-.2.255-.473.311-.677.241-.854.241-1.884.431-2.696v-1.17c.065-.264.238-.514.297-.741.117-.4-.045-.678 0-.993.145-.7.32-1.74.492-2.385.288-1.067-.96-2.185-.538-3.442.088-.316.376-.553.538-.799h1.29c.135.033.339.21.496.232.622.181 1.309-.083 1.833.135.23.097.705.348.858.543.088.134.05.287.176.376.26.088.538.162.798.24.905.576 2.157 2.024 2.751 2.952h.117c.209-.316.589-.552.988-.678h.436c.135-.13.283-.273.427-.427.315-.019.654-.037.974-.055a10 10 0 0 1 1.526-.487c.64-.158 1.47.06 1.907.176.404.028.812.037 1.211.056.279.064.678.19.928.255.223-.024.45-.047.673-.065.59.14 1.36.292 1.902.547.18.098.367.385.548.497.19.125.385.065.607.18.576.32 1.633 1.485 1.341 2.65-.209.895-.715 1.48-1.591 1.721m-1.959-20.224h-.854c-1.443.32-3.725.487-5.326.125h-1.22c-.311-.088-.826-.12-1.22-.255-.274-.074-.483-.283-.683-.427-.13-.106-.324-.05-.496-.12-.195-.093-.353-.339-.543-.432-.237-.125-.473-.078-.733-.185-.156-.065-.403-.255-.543-.316-.25-.014-.496-.032-.747-.046-.301-.102-.473-.339-.728-.436-.297-.112-.492-.037-.738-.186a8 8 0 0 0-.371-.431c-.171-.149-.445-.2-.608-.367-.19-.195-.269-.524-.422-.733-.255-.348-.743-.496-.988-.872-.195-.306-.219-.692-.427-.98-.18-.254-.97-1.113-1.22-1.289-.102-.083-.228-.079-.306-.18-.21-.298-.162-.785-.372-1.119-.135-.209-.38-.427-.496-.677-.098-.219-.055-.413-.176-.604-.157-.278-.45-.58-.552-.932-.18-.64-.107-1.819 0-2.334-.043-.264-.078-.524-.116-.789.038-.2.24-.519.301-.742.147-.575.024-1.03.19-1.6.093-.316.376-.645.478-.928.237-.594.097-1.258.315-1.907.065-.195.283-.52.362-.733.233-.576.242-1.021.492-1.531.074-.163.292-.32.362-.501.121-.409.255-.817.371-1.225.238-.418.608-.822.858-1.23.376-.63.51-1.605.859-2.278.107-.2.362-.209.487-.366.069-.279.13-.576.171-.873.287-.659.682-1.405 1.113-1.957.233-.274.706-.83.984-1.049.097-.088.226-.079.306-.186.417-.552 1.016-1.21 1.592-1.591.366-.241.696-.357 1.039-.608.348-.264.552-.747.928-.993.408-.287.863-.39 1.276-.682.19-.218.362-.445.556-.663.19-.135.46-.126.664-.25.264-.182.473-.558.742-.743.195-.13.404-.125.608-.246.524-.31.95-.738 1.596-1.048.436-.205 1.02-.052 1.401-.302.798 0 1.485.315 1.777.803.162.24.14.556.31.793.186.148.363.292.558.431.352 0 .617-.065.849-.125a96 96 0 0 0 1.591-.06c.238-.065.464-.362.854-.246.802.232 2.176.19 2.876.552.043.056.083.135.13.19.181.042.367.075.544.121.18.181.371.371.557.552.644.302 1.535-.158 2.199 0 .468.116.96.32 1.406.427.255.445.329.872.375 1.42.307.194.798.454.984.802.147.311.111.59.362.789.413.357.942.436 1.28.933.311.431.283 1.136.794 1.336.255.195.705.139.983.315.14.177.283.339.422.497.176.134.488.204.622.362.088.13.064.282.176.375.2.154.56.14.682.371.069.168-.048.362.06.492.125.163.347.26.426.488.161.52-.145 1.29-.241 1.6-.162.487-.043.84-.186 1.35-.14.497-.593 1.666-.858 2.028h-.06c-.347.385-.974.394-1.415.677-.102.107-.194.214-.301.316-.33.023-.654.041-.984.055-.32.088-.612.33-.914.432-.408.134-.784.028-1.164.19-.306.125-.631.436-.919.543-.394.07-.765.13-1.169.195-.724.232-1.485.65-2.195.923-.347.13-.612.065-.983.176-.264.084-.543.288-.789.371-.427.163-.816.14-1.22.311-.195.08-.422.297-.612.367-.515.167-1.007-.177-1.601 0-.246.07-.478.376-.733.427-.27.065-.9-.149-1.29-.06-.176.037-.524.148-.673.19-.422-.042-.853-.084-1.285-.13-.13.046-.31.269-.492.31a4.84 4.84 0 0 1-2.329.06c-.542-.023-1.09-.036-1.652-.06-.69-.171-1.451-.556-2.013-.927-.195-.13-.362-.325-.603-.432-.464-.144-.914.144-1.36 0-1.651-.51-2.783-.78-3.55-2.208-.096.041-.058.01-.106.055-.325.14-.334.409-.515.678-.13.157-.278.297-.418.431v.492c-.052.144-.25.27-.301.427-.083.58-.171 1.15-.255 1.74-.055.13-.238.283-.302.413-.111.264-.088.477-.237.69-.107.103-.214.191-.311.302-.171.45-.043.952-.18 1.416-.06.157-.256.282-.317.426v.859c-.078.362-.357 1.02-.237 1.48.116.478.533.65.733 1.044.05.2.121.412.18.612.181.27.52.552.738.803.126.162.126.371.246.552.176.301.654.96.914 1.169.157.12.269.042.487.12.195.07.38.298.552.372.283.13.51.116.803.241.339.158.682.464.979.622.246.041.482.074.728.13.32.102.752.33 1.1.422h1.049c.779.046 1.772.019 2.63-.186.682-.158 1.216-.014 1.893-.18.274-.07.562-.242.803-.316.343-.093.445.074.733 0 .145-.037.385-.19.491-.237.325-.046.646-.093.98-.125.154-.083.213-.38.422-.436.19.037.366.079.552.13.17-.033.404-.26.552-.311h.301c.938-.283 1.661-1.406 2.933-1.17.301.056.543 0 .737.121.413.126.58.436.803.743.13.171.306.171.487.306.478.33.812 1.276.733 1.972-.33.106-.301.287-.482.547-.228.32-1.118 1.049-1.466 1.234-1.69.891-3.791 1.383-5.828 1.907M92.6 61.211c-.32.023-.65.055-.974.069-.135.042-.246.246-.371.306-.204.02-.408.042-.612.056-.043.019-.19.176-.242.19-.64.2-1.963-.2-2.39-.306-.612.014-1.233.037-1.832.06-.055-.01-.237-.171-.31-.19-.367-.056-.766.44-1.04.552-.557.237-.979 0-1.41-.116h-1.225c-.162-.056-.497-.255-.678-.306-.287-.088-.598.171-.96.18-.145.126-.26.242-.38.367-.288.566-.33 1.443-.553 2.093-.078.255-.297.547-.366.793v.933c-.078.283-.343.515-.436.798 0 .218-.029.454-.055.672-.06.186-.25.441-.301.618-.024.245-.043.487-.06.737-.064.051-.13.116-.195.181-.135.362.093.538 0 .863-.073.288-.33.835-.301 1.234.023.19.237.57.13.924-.038.12-.209.352-.246.482-.144.515-.047 1.063-.18 1.466v.747c-.045.163-.255.348-.31.497-.06.204.044.496.059.617.102.658.047 1.28-.06 1.781v.919c-.038.134-.15.417-.18.557-.024.315-.038.617-.067.923-.102.283-.39.775-.492 1.104-.13.46.288.677.186 1.109-.055.255-.292.543-.362.798-.195.696.069 2.111.176 2.645.176.82-.39 3.15-.664 3.558-.209.32-.617.404-.978.562-.186.088-.4.264-.613.31-.798.177-2.278-.91-2.696-1.234-.306-.222-.334-.598-.491-.983-.181-.45-.51-.951-.678-1.476-.064-.478-.116-.937-.19-1.424-.06-.278-.19-.766-.116-1.16.078-.385.283-2.348.116-2.826-.069-.208-.357-.445-.418-.663-.092-.353.18-.413.126-.752-.083-.394-.25-.742-.25-1.285h.126c.14.102.496.074.733.06.024-.032.043-.046.06-.06.033-.292.175-.427.237-.626v-1.23c.102-.347.302-.802.38-1.1-.04-.45-.078-.909-.126-1.368.502-1.837.502-3.902 1.03-5.762 0-.534-.023-1.067-.054-1.6.083-.312.306-.743.376-1.04.069-.32-.246-.562-.246-.807-.024-.33.39-.567.482-.808.024-.38.048-.77.064-1.16.145-.57.395-.946.367-1.53-.21-.228-.408-.46-.612-.678-.376-.264-.817-.195-1.281-.367a31 31 0 0 1-.868-.57l-.608-.664c-.078-.185.039-.403-.059-.561a8 8 0 0 1-.547-.496c-.21-.27-.293-.548-.492-.85-.256-.366-.78-.598-1.156-.862-.213-.228-.422-.446-.621-.678.043-.102 0-.06.06-.12.073-.21.116-.246.305-.302.164-.111.404-.065.613-.125 1.647-.525 3.846-.506 5.386.125.538.204.706.798 1.471.663.083-.362.325-.774.432-1.1.12-.38-.029-.69.12-.983.108-.209.548-.598.558-.854.023-.603-.148-1.326.059-1.916.074-.241.353-.403.422-.677.176-.584 0-1.15.19-1.726.112-.339.52-.775.608-1.095.079-.31-.218-.677-.13-1.118.14-.594.33-1.17.431-1.717 1.058-.074 1.796-.352 2.696-.547.997-.241 3.03.687 3.303 1.16.126.223.107.431.25.621.172.232.59.353.734.613.154.283.18.96.246 1.234v.617c.116.181.18-.083.245.302.27.417.029 1.702-.064 2.087q-.035.558-.06 1.114c-.082.32-.282.691-.366 1.048v.79c-.156.542-.63 1.015-.733 1.595a2.92 2.92 0 0 0 1.833.19c.126-.027.464-.11.677-.064.121.037.441.185.599.185.12 0 .385-.218.5-.246.567-.158 2.826.311 3.244.562.218.13.418.385.608.542.399.316.956.181 1.234.627.088.125.024.33.116.478.064.088.167.07.246.125.566.445 1.262 1.188.919 2.338-.145.478-.576 1.188-1.044 1.35m31.034-.102c-.506 1.852-1.721 1.903-3.61 2.339-.269.07-.598-.08-.788-.065-.733.079-1.573.204-2.334-.051-.093-.037-.264-.218-.367-.25-.412-.145-.886-.061-1.224-.316-.162-.107-.238-.441-.362-.608-.284-.26-.576-.53-.863-.798-.102-.148-.166-.39-.297-.487-.18-.135-.431-.126-.617-.255-.21-.223-.408-.446-.608-.669-.223-.162-.501-.102-.742-.245-.18-.116-.112-.386-.238-.553a11 11 0 0 0-.682-.426c-.255-.27-.45-.96-.543-1.364-.126-.543.2-1.337-.246-1.662h-.556c-.316.316-.975.97-1.346 1.174-.334.172-.914.21-1.16.488-.306.338-.366.84-.612 1.238-.316.515-.905.965-1.1 1.582-.154.474.152 1.443 0 2.042-.301 1.113-.598 2.38-.612 3.804.255.186.366.557.612.743.171.064.33.13.487.18.362.246.715.627 1.105.868.417.25.909.492 1.345.664.288.13.547.102.794.25.209.135.394.44.612.557.343.195.877.18 1.164.431.093.089.084.288.195.371.21.186.548.19.78.367.455.334.719.84 1.1 1.225.477.482 1.048.77 1.415 1.36.361.589-.079 1.42.12 2.273.058.213.136.57.251.742.074.056.152.12.242.176.097.232-.117.27 0 .497.14.12.287.236.426.366.131.242.06.469.176.682.136.204.414.358.506.604 0 .255.034.505.055.742.088.185.343.278.422.496.278.72.135 1.406.31 2.213.103.45.247 1.313.058 1.847-.228.677-.905.905-1.276 1.406-.469.626-.78 1.322-1.23 1.976-.19.135-.366.297-.561.422-.107.204-.045.446-.171.608-.102.158-1.675.984-1.898 1.063-.18.014-.376.032-.547.06-.348.116-.659.478-.984.617l-1.234.181c-.436.176-.636.71-1.09.858-.45.158-1.647-.07-1.972-.12a20 20 0 0 1-.598.05c-.483-.139-1.198-.686-1.527-1.03-.116-.143-.209-.301-.315-.426-.238-.176-.594-.149-.863-.316-.395-.273-.566-.867-1.1-1.048a69 69 0 0 1-1.285-.126c-.59-.148-1.318-.58-2.26-.37-1.809.398-2.909.598-3.916-.613-.088-.093-.31-.116-.366-.25-.157-.274.121-.46 0-.799-.028-.065-.223-.213-.246-.301.04-.367.083-.738.117-1.1-.024-.18-.21-.524-.117-.867.176-.613.483-1.467.673-2.093.209-.677.166-1.267.367-1.907.135-.445.398-.71.43-1.29a.66.66 0 0 0 .307-.176c.292 0 .724.181.854.116.756-.148.835-1.062 1.225-1.596q.219-.159.422-.31c.408-.015.686-.121 1.109 0 .399.12.76.472 1.108.667.423.274.98.353 1.346.682.246.246.5.701.72.989.175.208.5.306.612.556.033.2.054.409.069.613.083.218.292.468.37.793.298 1.3-.566 1.675-.616 2.594.394 0 .538-.12.802-.186h1.09c.762 0 1.425-.051 1.968-.195h.376c.073-.074.147-.162.237-.246q.423-.154.854-.292c.315-.19.612-.543.923-.752.32-.213.78-.32 1.049-.612.32-.385.431-.9.719-1.355.297-.436 1.953-2.482.742-3.196-.154-.098-.385-.098-.492-.246-.157-.218-.145-.52-.366-.664-.408-.306-.766-.464-1.104-.812-.155-.236-.33-.454-.492-.677-1.633-1.132-3.967-1.48-5.568-2.64-.209-.153-.264-.487-.431-.677-.074-.084-.21-.047-.306-.13-.214-.153-.604-.729-.669-.975-.092-.306.136-.515 0-.807-.102-.204-.426-.714-.621-.854-.186-.153-.543-.287-.668-.487-.153-.297 0-.635-.122-.988-.033-.111-.213-.246-.241-.376-.116-.376 0-1.123.06-1.4a57 57 0 0 0 .05-1.666c.106-.464.315-.984.43-1.355v-.497c.084-.236.409-.547.488-.793v-.928c.455-1.239 1.122-2.38 1.842-3.382.334-.45.774-.803 1.044-1.35h.175c.065-.483.362-.585.497-.919.035-.227.078-.45.116-.682.097-.167.362-.227.496-.366.172-.19.172-.58.362-.743.46-.334 2.881-.812 3.68-.547.514.167 1.071.612 1.586.788.743.135 1.48.265 2.204.372.157.074.914.552 1.035.682.2.208.2.436.5.552.831.31 2.288.241 2.993.677.854.543 1.828 1.123 2.575 1.786.255.218.344.729.617.924.32.125.64.24.984.37.176.154.233.502.417.673.77.757.97.817 1.29 2.093.029.14.13.557.05.793m33.734-47.36c.103.575-.672 2.291-.858 2.96v1.712c-.088.255-.399.491-.492.737-.237.673.029 1.536-.18 2.274-.162.58-.501 1.238-.673 1.841v.683c-.125.58-.166 1.252-.375 1.846-.162.483-.594.863-.79 1.355-.135.353 0 .668-.116 1.1-.078.292-.241.71-.31.988.023.324.042.654.068.983-.038.112-.166.376-.194.488-.024.287-.034.575-.06.862-.045.14-.246.293-.306.436-.024.181-.038.372-.055.553-.13.264-.538.491-.677.728-.219.38-.26.705-.613.933-.487.31-2.653.431-3.303.185-.603-.227-.733-.816-1.587-.872.043.348.074.705.117 1.053-.064.367-.483.636-.311 1.225.055.181.25.241.31.376.024.338.039.691.06 1.039.029.088.219.232.246.311.074.19.102 1.058.06 1.169-.07.283-.413.404-.543.608-.098.148-.052.33-.136.492-.107.273-.417.399-.542.621v.246c-.131.228-.515.228-.738.371-.079.102-.167.2-.241.297-.441.26-1.095.427-1.592.562-.668.176-1.257-.065-1.958.12-.58.149-1.355.302-1.962.427h-1.958c-.157.024-.886.084-1.225 0-.687-.153-1.243-.422-1.898-.612-.301-.015-.617-.042-.918-.065-.464-.102-1.002-.223-1.471-.432-.51-.218-.947-.77-1.406-1.039-.691-.408-1.637-.39-2.329-.807-.157-.181-.33-.362-.492-.548-.348-.32-.691-.65-1.039-.974-.093-.176-.038-.31-.126-.501-.223-.529-.622-1.183-.784-1.777v-.742q-.097-.096-.195-.19c0-.446-.028-.9-.05-1.346-.246-1.118-.31-2.236-.547-3.313-.224-.95.157-1.888.292-2.533-.024-.227-.033-.45-.057-.673.024-.116.157-.37.176-.492.028-.282.05-.57.074-.853.068-.223.292-.501.361-.752v-.492c.06-.185.246-.496.307-.723.023-.204.038-.418.064-.622.083-.232.38-.515.482-.742q.035-.236.06-.488c.116-.315.33-.737.427-1.108v-.371c.078-.219.39-.46.496-.673.145-.306-.024-.696.117-1.044.073-.162.306-.288.375-.492.432-1.34.96-2.473 1.462-3.689.25-.589.255-1.136.491-1.725.088-.089.167-.163.251-.242.343-.52.817-1.21.98-1.85v-.85c.213-.933.324-2.538 1.465-2.533.255.18.613.18.914.315 1.346.594 3.42 1.392 2.946 3.559-.023.264-.045.538-.064.802-.223.58-1.053 1.5-1.104 2.028-.251.436.147 1.568 0 2.148-.135.59-.39 1.262-.552 1.796-.024.18-.038.371-.06.552-.18.492-.626.65-.793.983-.033.26-.078.525-.121.798-.112.098-.209.205-.31.307-.024.264-.039.533-.055.793-.079.278-.344.496-.437.747v.543c-.157.515-.45 1.192-.607 1.665-.079.557-.152 1.105-.241 1.67-.043.098-.21.26-.242.362-.214.539-.166 1.044-.38 1.536-.064.172-.307.46-.357.617-.136.367.17.914.064 1.281-.14.445-.506.793-.617 1.118v.557c0 .037-.162.18-.18.236-.153.478.096 1.123.18 1.48.068.274-.038.673-.06.859-.092.608.079 1.127.117 1.605.361.116.565.427.853.608.306.18.654.116 1.04.241.352.116.732.339 1.113.44h.914c.895.182 2.477.094 3.178-.129.316-.01.626-.042.928-.056.135-.07.33-.31.483-.37.547-.224 1.016-.363 1.475-.678.121-.149.246-.293.366-.432.219-.158.627-.153.789-.376.176-.213.093-.584.255-.853.14-.232.525-.279.673-.492.06-.204.121-.418.176-.626.228-.219.454-.446.677-.668.297-.618-.395-1.11-.06-1.717.024-.056.826-.974.859-.984.394-.162.65-.116.983-.31.13-.089 1.197-1.383 1.276-1.541q.034-.268.064-.552c.088-.265.39-.478.488-.742.209-.525.228-1.304.366-1.838.028-.417.043-.816.06-1.234.3-1.076.871-2.092 1.173-3.127v-.867c.036-.143.255-.292.297-.426.024-.33.04-.66.064-.98.112-.426.283-.969.487-1.359.048-.078.21-.227.246-.306.2-.464.083-1.28.242-1.782.145-.44.473-1.002.612-1.484.038-.376.074-.77.126-1.165.097-.361.413-.863.487-1.234-.028-.18-.038-.362-.069-.543.043-.116.219-.306.25-.436.025-.557.046-1.104.07-1.66-.045-.182-.302-.562-.19-.864.064-.144.31-.32.366-.482.14-.357.034-.487.315-.678.112-.097.214-.111.418-.12.241.176.58.468.859.543.445.157.756.055 1.104.255.51.264 1.656 1.429 1.893 1.976.161.344.078.678.25.97.107.181.344.38.432.552.552 1.1-.265 2.608-.064 3.753z"/><path d="M46.264 110.947c.334.134.728.44 1.29.325.514-.107 1.28.019 1.902-.135 1.215-.27 2.366-.042 3.484.25h1.777c1.837 0 3.14-.139 4.468-.496.074-.394.422-.687.556-1.044.136-.362.117-.622.307-.919.107-.148.334-.18.422-.37.31-.673.292-1.634.497-2.39.12-.497.584-1.114.426-1.786-.306-1.3-1.071-1.406-1.962-2.037-.116-.181-.246-.362-.362-.548-.385-.292-.821-.45-1.234-.737a6 6 0 0 0-.362-.367 30 30 0 0 1-1.095-.07c-.775-.092-1.554-.204-2.324-.306-.157.102-.395.01-.618.06-.533.145-1.113.335-1.535.623-.18.204-.367.412-.543.621-.72.506-1.494.886-2.148 1.462-.079.083-.062.208-.126.306-.265.26-.525.506-.794.738-.116.167-.12.329-.255.496-.166.144-.357.283-.533.431-.155.256-.126.492-.25.743-.172.32-.539.52-.73.788-.154.2-.17.418-.31.622-.14.19-.427.293-.617.422-.32.256-1.837 1.995-1.949 2.353v.965c.157.134.098.2.352.264.609-.482 1.485-.561 2.265-.264zm107.193.867c.496-.139 1.048.098 1.41-.13.673-.399 1.197-1.526 1.652-2.199.097-.134.334-.246.431-.366.306-.436.2-2.436.06-2.951-.024-.348-.038-.71-.06-1.044-.142-.469-.482-.895-.673-1.3-.125-.263-.059-.486-.18-.741-.344-.706-1.299-1.485-2.394-1.462-.696.464-2.255-.074-2.993.362-.668.39-1.405 1.23-1.777 1.912-.245.422-.282.872-.566 1.285-.324.538-.979.802-1.512 1.164-.413.274-.724.687-1.035 1.053-.083.08-.24.103-.31.177-.233.255-.131.798-.247 1.174-.175.491-.5 1.132-.677 1.6-.112.292-.052.543-.185.789-.13.232-.306.264-.367.622 2.074 1.192 6.96.844 9.423.055M11.619 68.105c.196.547 1.18 1.141 2.084.918.265-.064.659-.264 1.044-.19.445.098 1.22.265 1.772.135.316-.075.882-.237 1.35-.135.455.098 1.03.126 1.527.065v-.13c.288-.324.238-2.245.371-2.876.246-1.142.171-3.907-.126-4.923-.06-.204.06-1.248 0-1.605.079-.422.166-.858.241-1.276.195-.803.126-1.782 0-2.413h-.301c-.19.34-.404.673-.673.933-.052.042-.2.06-.25.111-.145.186-.065.538-.242.678-.315.264-.798.478-1.04.812-.324.445-.324 1.21-.672 1.651-.145.186-.506.093-.673.255-.255.223-.19.84-.37 1.165-.176.316-.585.561-.794.858-.162.232-.204.515-.362.733-.143.195-.427.293-.626.437-.293.24-.543.723-.784 1.053-.362.468-.84.672-1.044 1.34-.121.4.102.952-.06 1.41-.087.28-.468.72-.37.994z"/></g><path fill="#fff" d="M1.28 44.803c.269.11.576.083.805.246.448.01.434-.108.542-.433.205.032.435.11.617 0 .571-.218.497-.9.732-1.48.06-.126.242-.227.311-.366.098-.278.024-.575.182-.802.082-.032.151-.074.24-.122.093-.11.078-.32.18-.43.107-.108.312-.098.432-.187.107-.139.2-.278.301-.426.063-.019.127-.047.182-.06.038-.098.047-.21.061-.306.152-.265.464-.502.622-.734.038-.13.08-.251.12-.379.142-.121.287-.237.426-.368.41-.562.748-1.1 1.162-1.647.139-.185.402-.273.552-.446.376.06.862.247 1.048.498.082.105.024.318.116.426.088.11.347.074.432.196.088.124.07.337.18.421.126.032.253.043.373.065.189.13.263.445.486.547.325.163.686.029 1.044.187.278.12.376.514.608.686.12.032.24.089.371.12.093.122.049.354.11.488.395.607 1.481 1.545 2.21 1.777.608.199 1.536-.213 1.837-.426.209-.15.333-.47.616-.562.177.024.372.06.552.063.457-.087.928-.115 1.468-.23 1.558-.385 3.321-.818 4.773-1.231.251-.027.502-.046.739-.073.203-.074.454-.344.672-.423l.426-.07c.112-.078.089-.325.182-.42.087-.099.263-.118.37-.187.501-.385.817-1.256.92-2.031.784-.215 1.59-.734 2.263-1.105.2-.056.41-.12.614-.182.232-.153.268-.574.486-.737.205-.065.404-.121.612-.19.172-.111 1.24-1.508 1.351-1.721.174-.34.057-.752.19-1.17.612-2.167-.45-4.588-1.36-6.018-.167-.278-.556-.361-.738-.62-1.433-2.065-3.966-3.138-6.05-4.557-.705-.473-1.624-.562-2.33-1.035-.157-.11-.16-.385-.3-.5-.195-.144-.496-.144-.668-.302a57 57 0 0 0-2.089-1.66c-.165-.174-.328-.326-.49-.498-.446-.25-.809-.413-1.17-.732-.038-.103-.079-.196-.122-.311-.255-.268-.71-.497-.918-.799-.063-.153-.117-.33-.18-.5-.172-.246-.553-.4-.73-.66-.231-.338-.332-.7-.555-.988-.215-.287-.153-.682-.31-1.043-.29-.73-1.058-1.62-.73-2.882.131-.548.483-.942.67-1.369.043-.222.081-.45.12-.667.037-.07.686-1.18.738-1.24.115-.11.3-.143.43-.231.493-.39 1.027-.938 1.649-1.18.361-.138.756-.054 1.043-.114.16-.043.366-.213.492-.256.613-.199 1.077-.079 1.72-.237.465-.11 2.464-.626 3.053-.435.548.17 1.017.621 1.536.858-.024.445-.223.682-.126 1.105.325 1.52.947 2.457 2.083 3.135.325.195.897.064 1.17.315.11.205-.043.576.05.864.145.442.51.528.857.784.442-.032.753-.301.98-.543.292.036.458.19.613.371h.737c.088-.047.112-.287.186-.37.151-.19.453-.228.603-.427.481.008.524.185.79.3.425.177.995.158 1.473.252 1.058-.999 1.699-1.838 1.405-3.82V3.85c-.055-.19-.305-.298-.355-.492-.163-.543.282-1.165.115-1.847-.068-.287-.292-.459-.361-.672V.345a1.1 1.1 0 0 0-.247-.342h-19.4c-.08.07-.162.158-.252.213-.12.096-.306.087-.42.19-.137.11-.235.344-.372.432-.52.319-1.136.445-1.652.802-.166.107-.237.353-.371.483-.205.194-.534.232-.737.435-.247.26-.302.71-.543.995-.136.134-.32.184-.433.361-.222.362-.17.783-.366 1.163-.663 1.323-1.41 3.588-.983 5.356.18.713-.033 1.242.236 1.78.215.37.632.64.929.928.524.492 1.007 1.174 1.401 1.777.242.34.242.701.442 1.1.305.635.783 1.137 1.159 1.666.093.134.078.306.181.435.305.373.732.613 1.108.919.136.112.161.38.302.492.175.144.413.19.542.366.22.292.34.71.622.924.146.102.38.102.483.241.161.213.194.497.376.682.087.088.268.098.366.182.145.148.208.426.363.547.183.063.365.134.553.194.295.187.495.548.797.737.208.122.402.095.667.191.145.05.269.228.376.302.39.256.844.344 1.22.617.612.432 1.012 1.179 1.657 1.596-.246 1.935-1.786 3.303-3.059 4.24-.407.297-.681.932-1.104 1.166-.41.232-.848.263-1.224.5-.765.488-1.666 1.17-2.635 1.41-.641.159-.89-.286-1.527-.18-.053.009-.218.11-.25.12-.492.085-1.123-.152-1.708-.12-.25.028-.491.078-.738.12-.052-.009-.205-.166-.241-.185-.477-.14-1.387-.01-1.782.064a1 1 0 0 1-.058-.063c.044-.93.546-1.867.296-2.888-.658-2.862-.51-4.639-3.298-5.483-.464-.14-.97-.3-1.536-.237v-.185H5.75c-.151.316-.454.774-.297 1.355.05.2.237.528.17.798-.047.232-.231.537-.299.737v.302h-.122c-.039.148-.083.287-.13.435h-.117c0 .026.102.307.05.426-.024.086-.205.22-.237.308-.157.46-.148.733-.366 1.113-.347.6-.96 1.146-1.35 1.717-.141.218-.146.469-.305.673-.2.284-.558.505-.73.808-.143.254-.208.495-.426.672-.446.33-1.04.636-1.578.928v8.713c.05.222.102.442.22.626.184.26.757.682 1.047.804M174.093 4.53c-.098.45-.404.82-.553 1.223-.19.517-.135.906-.306 1.48-.117.414-.418.864-.548 1.29-.241.79-.459 1.667-.672 2.46a.87.87 0 0 0 .117.673c-.044.482-.349.455-.483.79-.2.536-.107 1.158-.306 1.73-.06.167-.26.325-.307.5-.023.363-.037.734-.05 1.105a92 92 0 0 0-1.239 4.736c-.145.6-.131 1.184-.242 1.713v.923c-.13.363-.44.914-.552 1.294-.126.404.098.715-.058 1.168-.14.395-.431.865-.553 1.291-.126.431.07.919 0 1.29-.031.177-.194.4-.246.552v.622c-.126.553-.278 1.637-.548 2.088 0 .622-.194.45-.555.673-.242.37-.103.94-.242 1.41-.079.255-.274.765-.432.997-.115.176-.431.39-.482.609-.116.383.797 1.38.914 1.716.166.524-.074.894.063 1.303.122.39.146 1.402.056 1.768-.024.126-.122.473-.056.682.136.502.39 1.698.663 2.093.149.126.29.25.437.37.122.177.122.376.247.553.268.39 1.54 1.299 2.325 1.1.263-.061.574-.268.797-.358.325-.142.663-.237.849-.505.478-.646.33-1.639.557-2.584.043-.158.199-.604.19-.79-.059-.435-.357-1.178-.19-1.85.241-.989.379-1.99.612-3.007.024-.431.038-.868.052-1.29-.028-.13-.189-.306-.116-.557.033-.12.21-.333.246-.496.102-.331 0-.576.126-.853.073-.19.292-.386.366-.613.048-.252.084-.488.122-.746.068-.155.254-.368.316-.548.12-.46-.108-1.002 0-1.416.028-.126.194-.316.232-.426v-.808c.078-.278.078-.658.18-1.043.339-1.153.923-2.469 1.169-3.629-.024-.223-.043-.442-.063-.679.268-1.196.237-2.504.608-3.622.107-.297.402-.492.5-.728 0-.32.038-.621.07-.928.146-.432.457-.942.607-1.346.158-.486.074-.89.241-1.304.152-.356.477-.9.608-1.294.218-.645.376-1.28.546-1.894l.073-.742c.12-.333.522-.615.667-.923.185-.407.158-.816.367-1.23.11-.217.408-.44.487-.681.12-.3.057-.783.13-1.105.135-.556.04-1.623-.059-2.087.024-.268.032-.529.059-.803.025-.407-.12-.57-.185-.797-.052-.433-.084-.859-.121-1.295a5.8 5.8 0 0 0-1.22-1.753h-4.747c-.167.988-.26 2.04-.464 2.866-.14.613.127 1.115 0 1.66zm-16.647 5.464c-.088-.172-.325-.37-.433-.552-.17-.292-.086-.625-.25-.97-.237-.547-1.383-1.712-1.893-1.975-.347-.2-.658-.098-1.105-.256-.278-.074-.615-.366-.857-.543-.205.01-.306.024-.418.122-.284.19-.175.32-.316.677-.053.162-.3.338-.366.483-.11.3.145.682.19.862l-.068 1.662c-.034.129-.21.318-.251.435.033.182.042.363.07.543-.075.371-.39.873-.489 1.234-.05.395-.088.79-.126 1.165-.14.482-.469 1.043-.612 1.484-.156.502-.043 1.318-.242 1.783-.038.08-.199.226-.244.305-.206.39-.376.933-.49 1.359-.022.32-.044.65-.063.979-.042.135-.259.284-.296.427v.868c-.3 1.034-.872 2.05-1.175 3.127-.023.418-.031.816-.058 1.234-.139.534-.158 1.313-.366 1.837-.098.266-.4.479-.488.742-.024.19-.052.373-.063.553-.079.158-1.148 1.452-1.279 1.54-.331.196-.587.149-.981.311a15 15 0 0 0-.859.983c-.335.608.357 1.1.06 1.718-.224.22-.45.45-.679.667a41 41 0 0 1-.173.627c-.149.213-.535.26-.674.492-.164.269-.08.64-.256.853-.16.224-.57.219-.789.377-.12.139-.245.282-.365.43-.46.316-.93.455-1.475.68-.153.058-.348.3-.483.369-.302.016-.613.047-.928.057-.701.22-2.283.309-3.18.129h-.911c-.382-.103-.763-.325-1.115-.442-.385-.125-.734-.06-1.04-.24-.287-.181-.49-.492-.852-.608-.038-.478-.21-.997-.117-1.605.024-.186.131-.584.06-.858-.084-.359-.335-1.003-.182-1.48.024-.056.173-.2.182-.238v-.557c.11-.323.477-.672.616-1.117.107-.366-.2-.916-.064-1.28.051-.158.292-.447.357-.617.215-.493.167-.998.38-1.536.034-.103.201-.265.242-.363.088-.565.163-1.113.242-1.67.157-.473.45-1.15.607-1.665v-.543c.093-.251.358-.469.436-.747.025-.26.034-.528.055-.793.103-.103.199-.209.31-.307.044-.273.09-.536.122-.798.166-.333.613-.491.793-.984.023-.18.038-.37.06-.552.16-.534.416-1.206.552-1.795.147-.58-.252-1.712 0-2.148.05-.528.88-1.447 1.105-2.028.022-.264.044-.537.063-.802.474-2.167-1.6-2.965-2.947-3.559-.3-.134-.658-.134-.913-.316-1.142-.004-1.252 1.6-1.467 2.534v.849c-.16.64-.634 1.332-.978 1.851-.084.08-.164.153-.251.242-.235.588-.24 1.136-.491 1.725-.502 1.215-1.03 2.348-1.462 3.688-.07.206-.301.332-.375.493-.14.347.028.737-.117 1.043-.107.213-.418.455-.496.674v.371c-.098.37-.312.792-.427 1.108-.024.167-.041.33-.06.488-.101.227-.4.51-.482.742-.028.205-.047.418-.065.621-.06.228-.246.539-.306.725v.49c-.07.252-.292.53-.363.752q-.032.428-.072.854c-.024.121-.152.376-.176.492.024.223.04.445.057.673-.136.645-.516 1.583-.292 2.533.237 1.076.3 2.194.546 3.313.024.445.045.9.05 1.345.064.066.132.126.195.19v.742c.163.595.562 1.249.784 1.778.089.189.034.325.127.502.347.323.691.653 1.04.973.16.185.333.367.49.548.692.417 1.639.4 2.33.807.458.268.895.82 1.405 1.04.469.208 1.007.328 1.471.43.302.024.617.051.919.065.655.19 1.21.46 1.898.613.338.083 1.067.023 1.225 0h1.957c.608-.125 1.383-.278 1.964-.426.699-.187 1.29.055 1.957-.122.497-.134 1.152-.3 1.59-.56.075-.098.163-.196.242-.297.224-.144.608-.144.739-.372v-.245c.126-.223.436-.347.543-.622.082-.163.038-.344.134-.492.131-.206.474-.326.543-.608.043-.11.024-.979-.06-1.168-.028-.079-.218-.224-.245-.313-.023-.347-.037-.699-.06-1.038-.058-.134-.255-.196-.31-.376-.171-.589.246-.858.31-1.225-.04-.347-.074-.705-.116-1.054.854.057.983.647 1.587.873.65.246 2.816.126 3.304-.185.352-.227.394-.552.612-.933.14-.236.548-.464.677-.729.024-.18.04-.37.054-.552.06-.142.26-.297.306-.436.03-.287.046-.574.06-.863.029-.11.158-.376.194-.486-.028-.332-.044-.66-.067-.985.067-.278.232-.695.31-.988.108-.431-.023-.747.117-1.099.194-.492.625-.873.79-1.356.208-.593.249-1.265.373-1.846v-.682c.173-.603.512-1.263.673-1.842.21-.737-.054-1.6.181-2.273.092-.246.404-.483.491-.737V16.71c.186-.67.961-2.385.859-2.961-.199-1.146.617-2.653.063-3.754M68.56 38.404c.18-.26.152-.442.483-.548.079-.694-.256-1.641-.734-1.973-.18-.132-.357-.132-.488-.304-.222-.306-.388-.617-.801-.742-.196-.122-.436-.066-.739-.122-1.27-.236-1.995.887-2.93 1.168h-.302c-.149.052-.38.28-.553.313a7 7 0 0 0-.552-.13c-.209.056-.269.352-.423.436-.333.032-.654.079-.979.126-.106.046-.347.2-.49.237-.29.073-.39-.095-.735 0-.241.073-.528.245-.801.316-.68.165-1.211.022-1.894.18-.857.205-1.85.232-2.63.184h-1.05c-.347-.093-.78-.32-1.098-.421-.246-.055-.483-.088-.73-.131-.296-.158-.638-.463-.978-.62-.293-.127-.52-.112-.803-.242-.17-.074-.357-.301-.553-.37-.217-.08-.328 0-.486-.122-.26-.209-.737-.868-.915-1.168-.12-.182-.12-.392-.245-.553-.218-.252-.557-.535-.737-.803-.06-.199-.13-.414-.181-.612-.2-.395-.616-.567-.733-1.044-.121-.459.158-1.119.237-1.48v-.859c.06-.143.256-.268.316-.426.142-.464 0-.966.181-1.416.096-.11.205-.199.311-.301.147-.213.126-.426.237-.692.063-.129.246-.284.301-.413.084-.589.172-1.16.256-1.74.05-.157.251-.283.301-.426v-.492c.14-.134.288-.273.419-.43.18-.27.19-.54.514-.68.046-.045 0-.012.108-.055.765 1.43 1.897 1.698 3.55 2.21.444.142.894-.145 1.357 0 .243.106.41.3.604.43.562.372 1.323.757 2.014.929.56.024 1.108.036 1.651.06a4.84 4.84 0 0 0 2.33-.06c.18-.043.363-.265.49-.311q.651.068 1.287.13c.147-.042.496-.154.672-.19.39-.088 1.021.125 1.29.06.255-.052.487-.358.734-.426.593-.177 1.084.165 1.6 0 .19-.071.417-.29.613-.368.402-.172.792-.148 1.22-.31.246-.085.524-.288.789-.372.37-.11.634-.047.983-.177.71-.273 1.471-.69 2.194-.923.404-.063.773-.126 1.168-.194.289-.107.614-.418.92-.543.38-.163.756-.057 1.165-.19.3-.102.593-.344.914-.432.33-.014.653-.031.983-.055.107-.103.199-.21.302-.316.441-.284 1.067-.292 1.415-.678h.059c.265-.362.72-1.531.858-2.027.146-.51.024-.863.187-1.35.096-.31.402-1.08.24-1.6-.08-.229-.3-.325-.427-.49-.107-.127 0-.323-.06-.489-.12-.233-.481-.219-.681-.372-.111-.093-.087-.246-.176-.376-.135-.158-.445-.227-.622-.363-.14-.158-.284-.319-.423-.495-.277-.177-.727-.12-.983-.316-.51-.199-.481-.904-.792-1.335-.34-.497-.868-.576-1.282-.933-.25-.2-.213-.478-.361-.79-.185-.346-.677-.607-.984-.801-.047-.548-.121-.975-.375-1.42-.445-.108-.938-.311-1.405-.427-.664-.158-1.556.3-2.2 0a68 68 0 0 1-.557-.552c-.175-.047-.363-.079-.543-.122-.044-.055-.089-.134-.131-.189-.7-.363-2.074-.32-2.876-.552-.39-.116-.617.181-.854.246-.533.023-1.062.047-1.59.06-.234.06-.498.126-.85.126-.196-.14-.37-.284-.557-.432-.172-.237-.148-.553-.311-.794-.292-.487-.979-.802-1.777-.802-.38.25-.965.096-1.402.3-.644.312-1.07.738-1.594 1.05-.205.12-.413.116-.61.246-.267.184-.477.561-.741.741-.205.127-.473.117-.663.251-.196.218-.368.445-.557.663-.414.294-.868.395-1.277.682-.376.246-.58.73-.926.994-.344.25-.674.367-1.04.608-.577.379-1.175 1.039-1.591 1.591-.08.107-.21.098-.307.186-.28.218-.753.774-.983 1.048-.432.553-.827 1.3-1.114 1.957a9 9 0 0 1-.17.873c-.127.158-.381.168-.488.366-.348.673-.483 1.648-.86 2.28-.248.407-.621.81-.856 1.228-.117.41-.253.817-.373 1.226-.067.18-.287.338-.361.5-.251.51-.26.955-.492 1.531-.08.213-.297.538-.362.733-.218.65-.079 1.313-.316 1.908-.1.282-.385.612-.476.928-.172.57-.044 1.026-.19 1.6-.06.221-.265.543-.303.742.038.264.074.524.117.79-.107.514-.181 1.693 0 2.332.103.354.395.655.553.933.12.19.078.385.175.603.117.25.363.469.497.678.208.333.16.821.37 1.118.08.103.206.098.307.181.25.176 1.039 1.034 1.22 1.29.208.287.232.672.426.979.246.375.734.524.99.872.151.209.232.537.421.733.161.167.436.217.608.366.13.143.256.284.37.432.247.149.443.074.74.185.254.098.426.335.727.437l.747.046c.14.06.385.25.543.316.26.107.497.06.734.184.189.095.347.34.542.433.17.07.367.014.496.12.2.143.409.353.682.426.394.136.91.169 1.22.256h1.222c1.6.363 3.882.195 5.325-.125h.854c2.036-.524 4.138-1.017 5.827-1.907.347-.186 1.239-.915 1.466-1.234m-17.58-21.458v-.853c.166-.177.33-.326.488-.502.195-.385-.121-.616.068-.914.103-.153.984-1.15 1.11-1.234.175-.13.46-.089.608-.242.408-.477.557-1.168 1.1-1.484.25-.037.486-.079.732-.126.284-.1.775-.297 1.045-.481.352-.26.477-.775.783-1.05.241-.19.525-.292.746-.49.35-.307.581-.79.92-1.096.255-.26.682-.292.979-.505h1.476c1.002.25 1.873.849 2.806 1.168.22.016.455.052.679.061.194.075.402.329.601.436.534.259 1.053.363 1.54.668.321.208 1.203 1.198 1.462 1.54.246.32.691.34.979.603.303.284.693 1.6.377 2.047.043.148.063.125.121.237.236.012.584.036.738-.052.37.031.306.162.48.363 0 .589-.1 1.278-.365 1.67-.157.3-.766.533-1.159.612a6 6 0 0 0-.432-.065c-.931.204-1.847.704-2.687.984h-.681c-.352.096-.562.454-.905.552-.38-.028-.748-.038-1.114-.061-.993.306-2.292.72-3.359.978-.798.2-1.586-.203-2.39 0-.987.243-2.203.057-3.303.131-.598.032-1.086.347-1.716.177-.542-.131-1.272-.414-1.837-.553-.418-.097-.868.029-1.165-.181h-.121c.063-1.039 1.122-1.5 1.397-2.338m33.552 19.25c.24.263.14.658.495.928.182.13.414.185.548.357.268.375.464.746.734 1.114.227.306.639.524.914.797.184.205.361.4.547.617.613.437 1.29.589 2.036.919.063.028.2.213.292.241.38.117.91.055 1.231 0 .272-.036 1.27.182 1.54.246h1.03c.76.209 1.98.214 2.82.367.256-.032.524-.075.793-.11.571.06 1.452.22 2.145.06.49-.145.978-.298 1.47-.446.384-.016.774-.033 1.16-.057.413-.1.812-.315 1.22-.426.339-.047.695-.074 1.044-.121.622-.3 1.156-.826 1.72-1.23.065-.046.08-.199.177-.25.157-.018.329-.037.491-.06a11 11 0 0 0 1.105-.427c.38-.172.654-.608 1.035-.732h.371c.14-.196.283-.368.427-.553.16-.07.334-.121.492-.196.342-.227.603-.639.852-.978.22-.302.553-.455.854-.679.28-.207.344-.522.553-.805.205-.26.655-.27.978-.423v-.06c.294-.153.275-.385.49-.557.217-.177.452-.148.62-.366.528-.7.696-1.675 1.22-2.4.214-.291.672-.468.863-.803.14-.263.11-.524.232-.792.205-.442.64-.887.734-1.41.079-.367-.098-1.5-.121-1.91 0-.18.205-.545.25-.744.23-.961-.464-1.81-.915-2.153.025-.497.41-.682.298-1.231-.142-.769-.347-1.405-.732-1.962-.145-.148-.28-.287-.423-.43v-.8c-.098-.268-.352-.473-.426-.806.328-.167 1.034-.919 1.215-1.215.19-.307.2-.692.436-.928-.033-.498-.864-1.819-1.225-1.973-.562-.23-1.342-.073-1.957-.237-.71-.208-2.409-1.373-3.43-1.127-.227.071-.49.301-.668.38-.454.206-.547.284-1.002.442-.18.06-.342.329-.528.395-.269.027-.758.073-1.026.12-.13.05-.553.05-.695.088-.256.07-2.13-.502-2.33-.612.024-.158.038-.21.064-.311.83-.01 1.674-.043 2.51-.065.274.063.804.12 1.104 0 .385-.139.646-.584 1.035-.72.08-.38-.121-.806 0-1.234.12-.394.692-.678.553-1.294-.289-1.23-1.435-1.49-2.631-1.791h-.794c-.242-.084-.45-.264-.797-.311-.59.394-2.005.189-2.756.437-.767.244-1.755.58-2.516.868-.338.079-.691.151-1.038.24-.663.284-1.43.798-2.144 1.045-.505.17-1.35.282-1.894.615-1.247.78-2.588 1.51-3.794 2.336-.26.174-.26.616-.493.797-.213.168-.505.149-.732.306v.13c-.442.334-.915.645-1.29 1.04-.05.161-.126.328-.181.496-.185.222-.694.176-.852.423-.47.71-.782 1.433-1.216 2.156-.367.58-.93 1.086-1.295 1.666-.5.766-.725 1.63-1.105 2.52-.106.26-.403.6-.477.852 0 .247.028.497.049.743-.096.26-.45.6-.552.852-.023.359-.048.71-.059 1.055-.024.064-.16.28-.184.37v.92c-.761 2.52-.442 6.278.923 8.304.136.21.445.297.607.493m2.756-5.966c.093-.335.335-.78.426-1.17.187-.72-.042-1.517.253-2.153.185-.423.305-.858.417-1.29q.065-.425.126-.858c.073-.047.126-.088.185-.126.17-.259.246-.552.435-.802.182-.162.368-.316.548-.497.246-.352.28-.76.488-1.159.151-.298.487-.372.677-.617.37-.505.543-1.133.915-1.662.25-.342.7-.543 1.042-.792.301-.237.906-1.165 1.16-1.291.158-.027.33-.055.492-.074.562-.221 1.086-.695 1.653-.914.166-.027.323-.036.481-.07.11-.088.21-.194.316-.3.418-.279.85-.54 1.342-.733.292-.122.584-.01.918-.131.096-.037.223-.2.306-.245.695-.354 1.405-.646 2.017-1.04.33-.213.766-.246 1.05-.496.126.024.11.024.18.06.37.19 1.196 2.101 1.526 2.584.302.436.799.724 1.22 1.048.325.237.6.627.928.863.242.172.39.163.553.427.416-.027.802-.269 1.034-.496h.246c-.136.76.464 1.168.301 1.791-.053.218-.236.474-.3.733-.176.746.095 1.475-.123 2.153-.072.241-.292.487-.375.798.05.431.088.862.126 1.285-.136.694-.218 1.326-.357 1.973v.857c-.083.357-.117.85-.246 1.234-.07.182-.278.352-.366.497-.158.389-.287.774-.433 1.168-.086.103-.292.131-.37.237-.14.2-.206.442-.367.622-.098.055-.19.134-.306.186-.208.25-.297.543-.552.737-.101.084-.26.098-.367.182-.05.05-.045.194-.126.244-.241.163-.589.122-.789.303-.082.087-.082.25-.185.316-.39.218-.84.218-1.23.426-.796.442-1.693 1.048-2.564 1.42-.37.064-.734.12-1.1.18-.251.099-.64.326-.852.427-.373.173-.71.079-1.055.246-.199.117-.385.335-.543.371-.65-.01-1.303-.041-1.957-.055-1.796.004-3.535-.14-4.774-.868-.251-.142-1.563-1.953-1.662-2.273-.152-.529.176-.88 0-1.414-.117-.395-.534-1.216-.362-1.842m34.03 103.365c.21-.854.591-1.602.8-2.525.145-.631-.38-1.094-.182-1.91.136-.571.543-.734.739-1.174.031-.223.079-.445.121-.674.101-.254.329-.553.426-.797.122-.347.172-.77.247-1.105-.029-.227-.038-.445-.06-.672.033-.195.205-.488.236-.68.086-.354-.173-.536-.236-.731-.144-.463.06-1.847.126-2.283l-.19-1.545c.209-1.252.278-2.588.673-3.62.237-.624-.347-.92-.19-1.538.166-.568.632-1.198.797-1.727.089-.584.182-1.183.256-1.782.063-.18.306-.37.366-.547.108-.292.024-.464.182-.677.5-.71 2.782-1.27 3.914-1.471.21-.05.368.083.49.121.374.093 1.414.126 1.84 0 .229-.07.418-.306.617-.366.2-.033.404-.043.603-.071.622-.268.952-.983 1.47-1.345 0-1.842-1.623-3.17-2.935-3.688-.205-.02-.41-.05-.61-.065-.731-.199-2.35-.646-2.573-1.299-.108-.19.435-1.782.557-2.079.24-.686.495-1.94.232-2.84-.05-.198-.242-.463-.302-.678-.17-.61-.151-1.2-.557-1.59-.082-.028-.194-.037-.297-.06-.607-.357-1.076-1.03-1.837-1.24-.71-.175-1.629.516-2.213 0-.71 0-1.122.433-1.28.995-.301.495.32 1.71.068 2.457-.1.26-.292.67-.37.985v.983c-.102.325-.367.747-.482 1.1-.044.292-.098.58-.131.862-.11.306-.325.7-.428.983-.027.168-.04.335-.06.498-.147.315-.505.552-.677.923-.797.181-2.31.584-3.248.306-.338-.102-.677-.38-.97-.502a7 7 0 0 1-.612-.055c-.412-.134-.806-.524-1.23-.672a31 31 0 0 1-1.284-.13c-.426-.107-1.201-.4-1.66-.246-.234.093-.404.366-.608.496.058.505.268.844.371 1.294-.033.41-.046.82-.063 1.231.11.455.379.546.49.792.144.325.073.584.18.933.132.4.455 1.086.68 1.462.105.199.354.246.55.375.26.19.474.553.737.742.376.284 1.56.766 2.014.923 1.01.32 2.385.084 3.308.488.228 1.189-.13 2.492-.363 3.512.026.34.04.687.056 1.035a95 95 0 0 1-.486 1.973v1.173c-.095.366-.275 1.196-.187 1.59.048.187.19.506.122.8-.024.083-.158.287-.18.37-.028.288-.046.57-.065.853-.098.308-.38.483-.483.743-.184.455-.096.89-.254 1.354-.04.122-.2.354-.246.498-.028.413-.074.82-.122 1.23-.056.212-.232.413-.296.615-.041.348-.093.702-.131 1.035a6 6 0 0 1-.363.433c-.389 0-.575-.02-.867 0 .029.63.237 1.14.38 1.67v.915c.024.106.152.379.176.5.145.616-.352 1.414-.115 2.268.254.965.454 2.079.9 2.964h4.573c.033-.139.065-.268.098-.378.024-.577.036-1.143.05-1.718zm-91.882.733c.126-.172.112-.404.246-.553.172-.203.385-.263.493-.555.194-.303 0-.924-.056-1.175-.096-.315-.023-.622-.19-.863-.267-.385-.836-.529-1.224-.79-.241-.17-.437-.514-.672-.681-.224-.088-.442-.158-.674-.246-.436-.333-.371-.886-1.105-.984-.106-.964-.955-1.665-1.831-1.842-.552.455-1.294.584-1.907.984-.315.21-.502.631-.789.858-.142.108-.289.136-.426.242-.298.246-.284.65-.492.988-.08.134-.905.687-1.04.746-.395.016-.77.038-1.168.057-1.468.431-3.514.357-5.086 0-.543-.126-.918-.005-1.341-.176-.357-.158-.774-.534-1.039-.816-.038-.075-.084-.158-.117-.242h-.184c-.32-.148-.742-.366-.979-.617-.177-.167-.224-.404-.373-.612-.151-.218-.464-.326-.681-.488-.161-.14-.2-.4-.357-.553-.098-.1-.265-.1-.368-.184-.263-.218-.467-.576-.742-.804a1 1 0 0 1-.17-.07c-.147-.37-.287-.77-.426-1.16-.122-.193-.41-.356-.502-.555-.344-.813.151-2.074-.06-3.007-.052-.246-.273-.923-.237-1.114.029-.241.144-.816.058-1.165-.249-.94-.394-1.275-.135-2.272.03-.163.05-.33.074-.493.524-1.084 1.323-1.735 1.652-3.075.152-.72-.363-.96-.487-1.35-.122-.329-.074-.993-.127-1.3-.129-.626.307-.653.548-.918.251-.268.21-.751.366-1.105.158-.352.483-.616.67-.923.093-.307.165-.613.241-.927.126-.26.426-.377.565-.604.166-.292.103-.673.242-.993.408-.979 1.246-1.92 1.957-2.644.19-.2.427-.6.678-.724.627-.329 1.503-.163 2.194-.436.284-.107.543-.548.799-.682.347-.177.603-.177.919-.366.44-.265.954-.817 1.466-.985h3.067c.134.038.416.155.552.191.282.065.481-.023.677.11.747.364 1.567 2.693 2.199 3.45.617.75 2.741.7 3.916.624.246.067.483.158.727.237 1.365.332 3.105-.5 3.555-1.108.142-.177.088-.445.186-.672.16-.385.589-1.143.486-1.717-.199-1.168-1.651-2.368-2.5-2.952-.26-.18-.38-.533-.679-.677-.52-.283-.862-.254-1.53-.436-.21-.047-.446-.241-.616-.306-.234-.093-2.005-.153-2.144-.07h-1.035c-.103-.12-.208-.236-.311-.358-.242-.17-.584-.407-.852-.5-.943-.31-2.313-.366-3.495-.366H18.42c-2.066.598-4.177 1.177-5.805 2.217-1.05.668-1.889 1.69-2.762 2.524-.132.122-.352.122-.486.246-.278.214-.412.496-.622.79-.268.244-.529.5-.792.732-.246.344-.284.837-.553 1.174-.274.362-.715.635-.975.984-.144.208-.166.483-.306.677-.152.205-.407.213-.616.37l-.975 1.232c-.458.876-.58 1.89-1.043 2.773-.142.143-.269.273-.433.426-.16.265-.16.552-.306.859-.068.153-.283.296-.366.432-.242.421-.2.895-.363 1.405-.101.353-.352.669-.49.928-.238.423-.137.978-.315 1.476-.095.301-.316.593-.418.858-.22.56-.149 1.216-.363 1.785-.144.32-.269.715-.417 1.12v9.544c.05.142.098.282.166.407.145.255.464.483.612.734.122.232.07.514.246.682.237.236.584.337.79.603.272.363.457.789.796 1.052.285.218.569.359.8.617.097.108.12.28.245.376.175.117.366.131.483.297.398.53.84 1.142 1.35 1.54.246.186.566.242.797.437.315.25.382.747.734.979.205.065.413.12.615.19.395.195.782.418 1.194.621h18.513v-.005c.584-.412 1.68-.811 2.078-1.357zm51.667-.06v-.562c.088-.343.325-.905.186-1.405-.107-.39-.483-.557-.687-.868-.367-.613-.464-1.225-.724-1.968-.093-.25-.366-.542-.417-.802-.074-.275.455-1.894.548-2.27.144-.62.096-2.175 0-2.768.115-1.067.24-2.13.361-3.198.106-.37.436-.473.616-.737.275-.409.275-.983.54-1.342.18-.236.49-.337.626-.615.204-.526.3-1.1.427-1.602v-.988c.13-.478.459-1.034.607-1.54.043-.288.084-.575.131-.86.2-.42.84-.564 1.096-.861.588-.7.756-1.694 1.284-2.46.311-.458 1.03-.468 1.467-.798.445-.337.607-1.122 1.098-1.415.32-.185.636-.166.919-.362.229-.153.334-.469.497-.677.352-.46 1.304-1.043 1.894-1.23.481-.162 1.242.07 1.65.116.339.033.932-.153 1.29 0 .431.186.747.686 1.165.928.955.52 1.698.803 2.144 1.837.042.331.067.655.121.985.278.83.268 1.215.059 2.143-.158.691.135 1.503-.059 2.096-.246.753-.368 1.852-.548 2.646v.621c-.167.613-.566 1.175-.741 1.847.022.273.047.57.067.857-.028.107-.21.332-.246.428-.053.39-.13.78-.18 1.168-.19.595-.331 1.3-.566 1.973-.146.442-.417.9-.479 1.475-.282.135-.983.19-1.23.371-.394.266-.263.91-.796 1.1-.024 1.099.17.57.677.984.218.184.325.694.677.923 0 .9.194 1.476.426 2.084-.194.87.758 3.121 1.225 3.516.298.101.612.199.915.311.92.529.974.79 2.14.246h.253a3 3 0 0 0 .488-.375c.734-.92-.041-2.376.488-3.263.394-.663 1.076-1.337 1.344-2.088.024-.208.046-.417.06-.616.146-.465.363-.906.496-1.346.025-.256.035-.497.058-.742.161-.568.606-1.064.802-1.602.041-.39.084-.784.117-1.163.024-.062.164-.237.185-.31q.035-.685.055-1.352c.1-.357.278-.844.37-1.239-.023-.584-.037-1.184-.062-1.768.277-.978 1.015-1.567 1.294-2.528-.047-.723-.089-1.429-.142-2.158.26-1.206.142-2.923-.17-3.925-.024-.357-.048-.695-.064-1.048-.135-.496-1.513-2.454-1.894-2.64-.457-.219-.978-.147-1.4-.441-.399-.254-.696-.797-1.114-1.043-.423-.237-.84-.209-1.225-.483-.435-.333-.612-.802-1.22-.993-1.428-.442-3.447-.347-4.899 0q-.548.043-1.095.055c-.575.167-1.29.452-1.842.627-.242.031-.488.079-.734.117-.505.249-1.048.615-1.531.858-.677.357-1.35.529-1.957.927-.307.205-.613.547-.914.741-.251.071-.496.165-.734.243-.436-.028-.482-.186-.742-.367-.11-.515-.047-1.462-.237-1.972-.14-.325-.454-.574-.562-.978v-.679c-.047-.134-.241-.319-.301-.421-.043-.26-.088-.51-.122-.742-.43-1.045-1.318-1.653-2.755-1.665-.228.184-.395.237-.496.546-.256.437.024 1.629-.117 2.222-.079.325-.22.775-.306 1.045-.2.653-.06 1.225-.31 1.782-.168.412-.503.955-.669 1.414-.255.682-.37 1.378-.552 2.098-.024.22-.038.44-.066.672-.033.098-.205.223-.242.306-.158.311-.028.659-.121 1.048-.092.373-.32.799-.426 1.175v.729c-.094.417-.278.885-.367 1.225 0 .412.043.825.064 1.23-.185.973-.274 1.999-.5 2.954-.132.547.023.969-.122 1.476-.2.672-.622.715-.91 1.168-.184.27-.291.71-.385 1.044v1.295c-.156.918 0 2.384.196 3.262.106.469-.107.677 0 1.168.035.22.227.548.19.794-.117.529-.431.997-.562 1.476-.13.5.126.937.176 1.23v1.349c.029.083.176.293.195.375l.11 1.602c.205.537 1.037 1.27 1.839 1.79h3.841c.455-.334.91-.942 1.063-1.423zm-26.627-1.048c-.464-.419-1.15-.474-1.772-.742-.333-.127-.491-.437-.742-.614-.18-.12-.39-.106-.548-.237-.672-.593-.156-1.308-1.71-1.29-.553.581-1.166.53-1.909.916-.079.101-.151.207-.24.31-.315.2-1.272.362-1.708.18-.552-.217-1.119-.69-1.595-1.049a54 54 0 0 1-.854-.849c-.469-.175-.938-.333-1.411-.5-.251-.19-.431-.804-.733-1.048-.023-.534-.142-1.165.059-1.658.102-.263.45-.411.306-.988-.213-.825-.524-1.717-.737-2.459-.246-.895.379-1.633.25-2.337-.214-1.045-.3-1.62-.054-2.696.11-.533-.103-1.136.053-1.6.067-.206.32-1.137.433-1.291.126-.195.366-.228.547-.371.089-.075.048-.209.111-.3.473-.679 1.2-1 1.425-1.983.512.07.538.725.79 1.058.063.016.116.038.18.047.2.208.159.426.31.677.196.366.696.57 1.04.807.2.143.376.459.616.547.298.024.61.038.92.065.436.126.928.423 1.342.562.227.07 2.11.284 2.32.246.227-.06.737-.158.982-.13 1.467.167 3.563-.064 4.965-.432.45-.11.895.11 1.225.182.297.07.727-.07.909-.057.496.052 1.057.21 1.53.242.274-.08.534-.168.798-.242.39-.091 1.234-.22 1.648-.125.088.02.33.11.497.07.395-.106.7-.417 1.094-.557.528-.195 1.119-.101 1.53-.371.285-.17.72-.706.989-.807.38-.134.748 0 1.095-.11.892-.29 1.99-1.452 1.416-2.712-.275-.584-.9-.552-1.468-.857-.357-.19-.56-.478-1.042-.622-.609-.172-1.243-.13-1.597-.552-.061-.084-.052-.168.06-.311.166-.45.668-.357 1.053-.608.229-.158.344-.488.547-.682-.028-.26-.042-.524-.063-.789-.367-.352-.85-.6-1.286-.863-.284-.728.358-1.702.126-2.087-.117-.298-.648-.674-.923-.813-.218-1.01-.145-2.839-.612-3.627-.247-.399-1.369-.66-1.838-.794h-.552c-.94-.375-1.878-.994-2.816-1.346-.775-.3-1.749.038-2.686-.194a5.6 5.6 0 0 0-1.35-.11c-1.104.782-2.205-.247-3.554.055-1.373.3-2.014.3-2.997.983-.395.273-.701 1.072-1.105 1.405-.52.437-1.184.65-1.642 1.119-.274.259-.454.537-.681.852-.294.395-.809.614-1.1.99-.506.653-.98 1.313-1.472 1.966-.079.103-.205.103-.31.187-.068.05-.864.9-.914.983-.307.436-.458.928-.794 1.35-.297.367-.723.757-.979 1.174-.151.222-.151.528-.306.738-.058.07-.254.106-.311.18-.241.325-.259.794-.426 1.16-.122.284-.437.534-.557.813-.237.603-.237 1.2-.543 1.716-.11.167-.352.37-.431.543-.229.497-.167 1.345-.302 1.92-.21.809-.492 1.652-.678 2.4v.607c-.166.635-.13 1.546-.3 2.278-.074.287-.242.603-.316.859-.038.882-.07 1.767-.121 2.64-.046.199-.251.376-.307.556q.038.307.06.617c.043.817-.145 1.592.064 2.344.135.435.505.825.662 1.224.117.237 0 .47.136.673.182.292.553.497.739.806l.361.976c.297.478.85 1.076 1.295 1.42.093.08.217.08.296.185.26.357.363.765.679 1.048.245.205.647.167.922.363.088.074.154.273.233.366.24.254.733.598 1.039.737.151.024.287.048.442.07.04.005.082.042.13.07h12.253a2.2 2.2 0 0 0 .65-1.485c-.252-.252-.506-.775-.733-.988m-10.83-23.236c.111-.356 1.63-2.096 1.948-2.351.19-.13.479-.232.618-.423.142-.204.157-.422.31-.62.19-.27.558-.47.73-.79.126-.25.096-.488.25-.742.174-.15.367-.289.534-.432.134-.168.139-.33.254-.496.269-.232.529-.478.794-.738.063-.098.046-.221.126-.307.654-.574 1.429-.955 2.147-1.461.177-.209.363-.417.545-.622.42-.287 1.002-.477 1.535-.622.223-.05.458.043.616-.06.772.103 1.55.213 2.325.306.367.029.734.057 1.095.07q.196.18.363.368c.412.287.848.445 1.233.737.117.186.246.366.363.547.89.632 1.655.737 1.962 2.036.157.674-.307 1.29-.427 1.787-.205.758-.186 1.717-.497 2.39-.088.189-.315.22-.423.37-.19.297-.17.558-.306.92-.134.356-.481.65-.555 1.042-1.328.359-2.632.498-4.469.498h-1.777c-1.117-.292-2.268-.521-3.485-.251-.62.153-1.386.028-1.902.135-.56.116-.955-.19-1.29-.325-.779-.297-1.657-.218-2.264.264-.253-.063-.194-.13-.352-.264zm110.859 23.292c.038-.218-.131-.581-.187-.85-.1-.441.154-1.035 0-1.303-.273-.548-2.115-.426-2.885-.227-1.494.356-2.894.849-4.337 1.215-.691.186-1.509-.246-2.02-.366h-.551c-.515-.158-1.48-.622-1.894-.924-.221-.167-.264-.524-.44-.738-.024-.036-.71-.5-.79-.56-.67-.46-1.479-.627-1.775-1.471-.247-.68.301-1.823.301-2.706 0-.89-.194-2.18.07-3.007.082-.3.277-.737.361-1.107.038-.414.087-.83.131-1.225.115-.404.417-.77.548-1.18.203-.621.244-1.107.476-1.72.256-.58.622-1.086.868-1.717.682-.121.85.325 1.345.49.418.141.775.085 1.165.253 1.141.463 2.677 1.205 4.093 1.355.315.031.72-.307.983-.382.742-.19 1.188.28 1.907.126.64-.148 1.657.05 2.446-.126.616-.134 1.252-.352 1.776-.482.696-.195 1.325.348 1.837.482.663.186 2.566.158 3.243 0h.984c.96-.254 2.279-.649 2.997-1.225.265-.218.409-.783.724-1.048.043-.71-.347-1.926-.854-2.218-.583-.325-1.461-.162-2.078-.492-.6-.306-.878-.974-1.272-1.47.047-.528.516-.69.347-1.42-.068-.32-.37-1.471-.24-1.902.047-.139.26-.344.31-.483.146-.445.051-1.54-.184-1.856-.172-.412-.502-.245-.92-.421-.598-.26-.974-.976-1.59-1.18.06-.653.51-1.335.176-1.966-.38-.73-1.504-.952-2.2-1.411-.333-.221-.26-.584-.486-.914-.455-.672-2.158-1.136-3.309-1.105-.205.15-.52.08-.789.177-.255.093-.49.354-.742.432h-1.467c-.221.046-.5.209-.673.24-.383.098-.593-.12-.797-.184-.543-.14-2.232.421-2.51.622-.454.333-1.025 1.002-1.341 1.475-.126.18-.14.357-.311.486-.412.288-.58.594-.919.924-.246.25-.653.385-.852.678-.167.24-.21.496-.377.742-.316.455-.85.816-1.16 1.29-.338.51-.395 1.136-.737 1.66-.343.521-.85 1.133-1.16 1.653-.122.37-.251.742-.367 1.112-.284.483-.686 1.058-.915 1.591-.134.32-.073.648-.178.99-.098.24-.29.49-.382.732-.161.521-.12.916-.297 1.42-.054.15-.259.317-.31.427-.205.39-.116.837-.298 1.23-.268.57-.672 1.313-.858 1.972-.024.375-.05.742-.063 1.108-.056.168-.2.427-.242.613-.046.334-.093.658-.13.983-.146.45-.414.91-.553 1.416-.136.514.126.852-.059 1.364-.153.399-.464.937-.617 1.404-.224.72-.196 2.182-.055 2.887.147.668-.103 1.35.126 1.907.063.158.287.296.366.421.608 1.1 1.165 2.084 1.842 3.086.352.533.947.892 1.467 1.286.18.142.236.467.426.62.344.256.868.608 1.35.933h14.722c.227-.77-.358-1.627-.215-2.416m-10.104-22.136c.135-.247.074-.496.184-.79.177-.467.502-1.108.68-1.6.114-.376.023-.919.245-1.173.068-.074.228-.098.311-.176.31-.367.62-.78 1.034-1.053.533-.363 1.187-.627 1.512-1.165.284-.414.32-.863.567-1.285.37-.682 1.108-1.521 1.777-1.911.737-.437 2.296.1 2.992-.363 1.096-.024 2.05.757 2.393 1.461.122.256.055.479.182.742.19.404.528.832.672 1.3.024.334.038.695.06 1.044.14.515.245 2.514-.06 2.951-.098.12-.335.232-.43.367-.455.672-.98 1.799-1.653 2.198-.362.228-.914-.009-1.41.13-2.464.789-7.35 1.136-9.422-.055.058-.357.236-.39.366-.622m31.709 21.648c.126-.33.241-.668.367-.988.546-.904.714-2.454.974-3.624.089-.361-.06-.78-.11-1.043-.158-.758.072-1.642.17-2.153.059-.256-.079-.38-.117-.488-.088-.356.11-1.572.194-1.906.122-.613-.284-.96-.194-1.424.218-1.045.584-2.158.853-3.071.044-.603.083-1.22.126-1.847.05-.126.265-.223.308-.363.086-.24-.035-.71-.06-.862-.038-.25.083-.492.11-.679.07-.258-.079-.552-.11-.737-.06-.296.126-1.624.25-1.842.073-.184.343-.378.422-.621v-.543c.093-.39.28-.807.488-1.108.194-.275.514-.297.802-.493.112-.083.347-.495.418-.612.121-.376.255-.751.375-1.113.176-.488.747-.394 1.285-.548.433-.134.916-.33 1.342-.432.653.016 1.308.038 1.962.057.65-.177 1.382-.988 2.45-.674.728.21 1.118.947 1.712 1.286.571.338 1.47.338 2.028.673.603.394 1.196 1.048 1.823 1.423.357.21.836.28 1.105.553.237.227.388.57.677.741.199.038.407.08.612.112.316.14.687.45 1.042.562.92.292 2.948-.339 3.31-.672.184-.237.524-1.124.356-1.602-.037-.142-.254-.283-.296-.426-.166-.51.042-1.127-.185-1.54-.172-.316-.548-.572-.734-.853-.194-.28-.237-.61-.43-.873-.182-.232-.506-.252-.735-.432-.333-.26-.691-.616-1.112-.797-.553-.242-1.058-.21-1.648-.437-.474-.163-.886-.599-1.342-.793-.259-.098-.601.027-.922-.07-.375-.102-.678-.422-1.044-.542-.845-.284-2.292-.21-3.36-.186-.332.222-.93.055-1.344.186-.25.07-.552.287-.799.361-.501.163-.793.163-1.284.311-.576.185-1.115.575-1.665.807-.442.098-.892.2-1.328.301-.413.186-.798.543-1.17.739-.306.162-.635.13-.918.306-.483.316-.988.84-1.41 1.23h-.06c-.063-.553-.12-1.1-.189-1.658-.055-.18-.298-.323-.37-.486 0-.173-.039-.334-.053-.505-.298-.67-1.215-.846-1.963-1.105-.426-.139-1.295-.34-1.716 0-.511.426-.117 1.192-.301 1.972-.21.877-.326 2.03-.553 2.951-.145.64.029 1.187-.121 1.785-.136.516-.45 1.026-.603 1.468v.43c-.108.348-.311.905-.442 1.23-.038.311-.08.62-.11.924-.132.292-.405.625-.498.922v.626c-.185.794-.254 1.782-.435 2.51v.683c-.062.25-.237.56-.297.797-.11.4 0 .715-.126 1.045-.073.194-.283.45-.367.612-.038.232-.079.455-.121.692-.074.139-.306.323-.366.49-.07.269-.127.567-.185.86-.117.222-.41.523-.492.784-.185.56 0 1.067-.302 1.483-.284.414-.873.753-1.22 1.1 0 .758.385.673.537 1.175v1.42c.044.11.22.297.252.417.204.756-.121 1.675-.252 2.232-.13.631.03 1.54.132 2.009v1.184c.17.522.778.843 1.039 1.278.057.103.136.21.19.325h4.38c.176-.486.176-1.122.384-1.605.242-.537.71-.844.983-1.299M92.737 57.524c-.079-.055-.181-.038-.246-.126-.103-.147-.028-.352-.117-.477-.278-.445-.835-.31-1.234-.627-.19-.157-.39-.413-.608-.543-.416-.25-2.677-.72-3.243-.561-.115.028-.38.246-.5.246-.158 0-.479-.149-.6-.185-.213-.047-.551.036-.676.063a2.92 2.92 0 0 1-1.832-.19c.1-.578.574-1.052.732-1.595v-.789c.084-.357.284-.728.366-1.048q.035-.555.06-1.114c.093-.384.333-1.67.063-2.087-.063-.385-.13-.121-.244-.301v-.617c-.063-.275-.093-.952-.247-1.235-.142-.26-.561-.38-.734-.612-.143-.19-.126-.4-.249-.622-.275-.473-2.306-1.402-3.303-1.16-.9.194-1.639.473-2.696.548-.103.547-.292 1.122-.431 1.715-.088.442.208.808.13 1.12-.087.32-.496.755-.608 1.095-.19.574-.024 1.14-.19 1.725-.07.274-.347.435-.423.678-.208.59-.044 1.312-.058 1.915 0 .256-.451.646-.557.854-.149.292 0 .603-.122.983-.107.325-.347.739-.43 1.1-.766.134-.933-.459-1.472-.663-1.54-.63-3.74-.65-5.387-.126-.208.06-.45.016-.612.126-.19.056-.234.092-.306.3-.05.062-.024.02-.06.122.2.232.41.45.622.679.375.263.9.495 1.155.861.2.302.284.58.493.85.175.171.356.344.547.497.097.157-.023.375.059.56l.609.663c.079.061.843.562.868.571.462.172.903.103 1.278.366.206.218.404.452.614.679.029.584-.224.96-.367 1.531q-.035.586-.063 1.159c-.094.241-.498.478-.483.808 0 .246.315.487.246.806-.071.298-.292.73-.376 1.04.032.534.047 1.067.054 1.6-.529 1.862-.529 3.926-1.03 5.762.048.46.083.92.127 1.37-.079.296-.28.751-.38 1.1v1.23c-.06.198-.206.332-.239.626a.15.15 0 0 0-.06.06c-.236.014-.593.04-.732-.06h-.126c0 .541.165.89.25 1.285.054.337-.219.399-.126.751.059.218.348.455.419.663.165.478-.04 2.442-.117 2.825-.074.395.053.884.117 1.16.072.49.126.947.189 1.425.166.524.497 1.026.679 1.476.154.385.183.76.489.983.418.326 1.899 1.412 2.697 1.235.213-.048.427-.223.613-.311.361-.158.77-.242.978-.562.273-.409.84-2.737.663-3.56-.107-.533-.37-1.947-.175-2.643.068-.256.306-.543.361-.799.103-.43-.315-.648-.184-1.108.1-.33.388-.82.49-1.104.03-.307.053-.608.067-.924.033-.139.145-.421.181-.557v-.919c.106-.5.161-1.122.059-1.78-.024-.121-.122-.413-.059-.617.054-.148.264-.335.31-.497v-.747c.136-.404.036-.951.181-1.466.038-.13.209-.363.247-.483.105-.352-.117-.732-.131-.923-.029-.4.227-.947.301-1.235.093-.323-.136-.5 0-.861.063-.067.131-.131.194-.182.024-.25.038-.492.06-.737.052-.177.242-.432.302-.617.028-.218.05-.455.055-.674.091-.283.357-.515.435-.797v-.933c.07-.246.288-.538.367-.794.222-.648.265-1.526.552-2.091.122-.126.237-.242.38-.368.363-.01.673-.268.962-.18.18.05.514.25.677.306h1.225c.43.116.852.352 1.409.116.275-.11.674-.608 1.04-.553.073.02.256.182.311.191.598-.023 1.22-.047 1.83-.06.429.106 1.753.505 2.392.306.049-.015.199-.172.242-.189.205-.016.407-.038.612-.057.126-.06.237-.265.37-.306.326-.016.654-.047.975-.07.469-.162.9-.872 1.045-1.35.342-1.151-.354-1.893-.919-2.338zm29.567.7c-.184-.171-.24-.52-.416-.673-.345-.13-.663-.245-.984-.371-.274-.194-.363-.704-.617-.923-.746-.663-1.72-1.243-2.576-1.786-.704-.437-2.162-.366-2.992-.678-.3-.115-.3-.343-.5-.553-.122-.13-.878-.606-1.036-.68a67 67 0 0 1-2.203-.372c-.515-.176-1.072-.62-1.587-.79-.798-.263-3.22.215-3.679.55-.19.16-.19.552-.363.742-.134.138-.397.198-.495.366-.038.232-.08.454-.117.682-.136.334-.431.437-.496.918h-.177c-.268.548-.71.9-1.041 1.351-.722 1.002-1.39 2.144-1.844 3.383v.928c-.079.244-.404.555-.487.792v.497c-.116.371-.324.89-.431 1.354 0 .558-.033 1.1-.05 1.666-.06.279-.176 1.025-.06 1.401.03.13.21.265.242.376.122.353-.033.691.122.988.126.2.481.334.667.487.195.14.521.65.622.853.136.293-.093.502 0 .808.063.246.455.82.668.975.098.082.23.048.306.13.167.19.224.524.433.678 1.6 1.159 3.933 1.506 5.566 2.64.161.22.34.44.493.676.338.348.694.506 1.105.812.22.143.208.445.364.663.108.15.34.15.493.246 1.21.715-.445 2.762-.742 3.198-.289.454-.4.969-.72 1.354-.268.292-.729.4-1.048.612-.31.209-.607.562-.923.751-.287.095-.572.19-.854.294-.088.082-.161.17-.237.245h-.377c-.543.143-1.206.195-1.967.195h-1.089c-.265.064-.41.185-.805.185.05-.919.916-1.294.618-2.593-.08-.325-.288-.575-.371-.792-.024-.206-.038-.414-.068-.613-.11-.252-.437-.347-.613-.557-.22-.287-.473-.742-.72-.988-.366-.331-.923-.409-1.344-.682-.347-.196-.71-.548-1.11-.67-.421-.119-.7-.013-1.11 0-.133.103-.277.206-.42.312-.39.533-.47 1.447-1.226 1.596-.13.064-.561-.116-.852-.116a.66.66 0 0 1-.308.177c-.033.58-.296.845-.43 1.29-.2.639-.16 1.23-.367 1.906-.19.627-.497 1.48-.674 2.093-.091.343.095.687.117.868a46 46 0 0 1-.117 1.099c.024.088.22.236.247.301.121.34-.158.524 0 .799.055.134.277.158.366.25 1.007 1.211 2.107 1.01 3.916.613.942-.21 1.67.221 2.26.371.43.047.868.088 1.285.126.533.18.705.774 1.1 1.047.268.167.626.14.863.315.106.127.199.285.316.427.328.344 1.041.891 1.526 1.03.194-.014.402-.031.598-.05.324.05 1.522.278 1.973.12.453-.149.654-.682 1.09-.857l1.233-.182c.324-.139.635-.502.984-.617.17-.028.366-.047.547-.06.223-.079 1.795-.904 1.898-1.062.126-.163.063-.404.17-.608.196-.126.373-.289.562-.423.45-.653.76-1.35 1.231-1.976.37-.502 1.046-.73 1.275-1.405.19-.535.045-1.398-.058-1.846-.175-.808-.032-1.495-.31-2.215-.078-.218-.334-.31-.422-.495a12 12 0 0 1-.056-.742c-.091-.248-.37-.401-.505-.605-.116-.213-.046-.442-.175-.681-.142-.13-.289-.247-.426-.367-.118-.227.095-.265 0-.497-.09-.055-.167-.12-.243-.175-.117-.174-.194-.53-.251-.742-.199-.855.241-1.685-.12-2.274-.368-.59-.938-.878-1.416-1.36-.38-.386-.645-.89-1.1-1.226-.232-.175-.57-.18-.78-.366-.11-.083-.1-.284-.194-.37-.287-.252-.82-.237-1.165-.432-.217-.116-.402-.423-.612-.557-.246-.148-.505-.121-.792-.25a9.5 9.5 0 0 1-1.347-.664c-.39-.241-.741-.621-1.104-.868-.157-.05-.316-.115-.487-.18-.246-.186-.358-.557-.612-.741.024-1.426.311-2.693.612-3.806.152-.6-.154-1.569 0-2.042.195-.616.785-1.067 1.099-1.582.246-.399.306-.9.612-1.239.247-.277.827-.315 1.16-.487.373-.204 1.031-.857 1.347-1.173h.555c.447.325.122 1.117.247 1.66.093.404.288 1.096.543 1.364.228.136.454.268.681.426.127.17.056.437.239.553.241.145.52.083.741.246.201.224.4.447.608.67.186.129.437.119.617.253.131.098.196.34.297.49l.863.797c.127.165.2.5.363.607.338.254.812.17 1.224.316.102.031.274.213.367.25.761.255 1.6.13 2.333.051.19-.015.521.135.79.063 1.887-.434 3.104-.486 3.609-2.335.079-.237-.024-.655-.05-.794-.32-1.277-.52-1.337-1.29-2.093zm-58.83-.825c-.222-.117-.416-.057-.607-.181-.18-.11-.366-.4-.548-.497-.543-.255-1.313-.408-1.902-.547a35 35 0 0 0-.672.064c-.25-.064-.65-.19-.928-.254-.4-.02-.808-.029-1.21-.056-.438-.117-1.268-.334-1.909-.177-.519.111-1.108.32-1.526.488l-.974.055a13 13 0 0 1-.426.427h-.437c-.4.126-.78.363-.988.678h-.117c-.593-.928-1.847-2.377-2.751-2.951-.259-.08-.537-.153-.797-.242-.126-.088-.089-.241-.177-.375-.153-.194-.627-.445-.857-.543-.524-.218-1.212.047-1.832-.134-.158-.024-.363-.2-.498-.232h-1.29c-.162.246-.449.48-.537.798-.423 1.257.825 2.376.536 3.441-.17.647-.347 1.686-.489 2.386-.047.316.115.594 0 .992-.06.228-.234.478-.298.741v1.172c-.19.81-.19 1.841-.431 2.695-.057.204-.242.477-.311.677v.747c-.024.065-.153.251-.182.306v1.294c-.151.53-.454 1.258-.309 1.958-.025.246-.035.497-.063.743 0 .177.098.366.136.492.11.524-.18 1.026-.311 1.415-.092.268-.38.789-.237 1.043-.098.557-.799.604-.988 1.291-.153.496-.107 1.42 0 1.916.147.704-.046 1.313.11 1.957.196.734.562 1.39.742 2.158.1.413-.036 1.021-.063 1.346-.091 1.03.079 1.953.251 2.644.107.454-.147 1.132.055 1.484.043.54.458.688.677 1.041.6.946 1.105 1.905 2.264 2.273.372.115.858-.047 1.286.063.137.033.431.215.616.179.623-.113 1.796-.805 2.023-1.347.284-.679 0-1.5-.126-2.028-.092-.347.112-.436 0-.747-.096-.258-.366-.51-.436-.789q.074-.499.122-.992c-.05-.228-.32-.599-.237-.924.038-.148.254-.25.18-.547-.024-.135-.199-.269-.246-.367v-.44c-.161-.682-.209-1.433-.426-2.083-.08-.232-.302-.455-.367-.687-.102-.366.152-.653.185-.919.024-.222-.147-.658-.055-.978.042-.227.186-.641.237-.864.055-.25-.092-.366-.12-.495.023-.423.042-.854.05-1.282a3.6 3.6 0 0 1 0-1.475v-.678c.13-.129.259-.258.379-.366.2-.385.368-.836.548-1.168.162-.325.083-.748.363-.925.366-.22.756-.263 1.104-.486.264-.186.389-.58.611-.817.294-.278.837-.371 1.045-.723.161-.28.458-2.251.185-2.71 0-.733-.05-1.364.306-1.717.172-.19.464-.269.608-.491.181-.307.274-.673.547-.868.275-.195.701-.256.859-.553.246-.435.145-1.029.43-1.42.373-1.039 2.668-.829 3.61-.427.051.062.127.122.182.187l.868.126c.096.036.259.25.362.31q.348.116.667.24c.562.335 1.174.883 1.837 1.11.344.11.65-.004.928-.064h1.517c.878-.242 1.383-.827 1.591-1.72.294-1.167-.765-2.332-1.341-2.652zM.915 89.736c.395.205.423.77 1.286.572.367-.11.733-.218 1.105-.311.269-.223.278-.543.671-.679.095-.773.186-1.744.368-2.519.166-.76-.302-1.285-.055-1.971.511-1.471 1.31-2.794 1.832-4.18.131-.344-.028-.72.117-1.119.145-.134.287-.284.435-.416l.113-.92c.198-.267.37-.542.552-.802-.126-.521.254-.646.376-1.053.023-.371.033-.734.063-1.1.094-.292.399-.45.544-.679.082-.24.156-.486.242-.737.524-.096 1.278 0 1.655.252.098.095.2.2.307.305.344.148.978.158 1.29.237.736.205 1.906.088 2.57-.055 1.02-.223 2.704-.015 3.615.176.555.12.663-.135 1.15.13.063.181.218.487.25.612.13.409-.273.965-.371 1.225-.059.442-.117.863-.18 1.294-.117.395-.359.892-.493 1.354-.236.883.033 1.741-.421 2.34-.098.134-.246.232-.437.126-.343-.011-.58.008-.79.115.04.6.294.97.428 1.414.024.21.038.418.055.617.149.438.446.966.622 1.351.032.273.08.548.12.807.163.454.557.794.799 1.155.098.297.194.584.297.868.45.654 1.684 1.063 2.265 1.66 1.4-.05 2.997-1.972 3.368-3.126.147-.454-.033-.979.136-1.484.12-.399.49-1.035.602-1.475-.023-.14-.036-.284-.055-.423.024-.692.043-1.364.055-2.036.371-1.63.311-3.583.793-5.165.363-.093.841-.284 1.17-.366.528.055 1.057.12 1.595.185 1.708-.232 3.763-.524 4.162-2.093.145-.594-.246-.983-.37-1.35-.279-.836-.567-1.313-1.226-1.72-.284-.088-.571-.167-.849-.246-.284-.172-.469-.567-.811-.682a92 92 0 0 1-1.462-.062c-.21-.05-.339-.232-.489-.296-.374-.063-.745-.134-1.103-.19-.245-.11-.477-.408-.732-.557-.127-.64 0-1.424.116-2.028v-1.656c.029-.134.155-.51.19-.672v-.928c.083-.268.4-.538.487-.808.059-.778.122-1.553.19-2.338 0-1.285-1.54-3.28-.622-4.492.246-.473.818-.407 1.351-.607.584-.213 1.364-.65 1.646-1.164.046-.224.093-.451.131-.683.426-1.433-.593-2.304-1.285-3.005-.162-.191-.334-.373-.492-.562-.589-.297-1.479-.371-2.139-.548-.663-.181-1.67.144-2.203-.181-.502-.032-1.119-.692-1.411-.984-.407.065-.58.307-.859.493l-.067.055c-.215-.376-.423-.873-.845-1.038-.21-.032-.418-.089-.617-.122-.445-.241-.414-.395-1.225-.376-.287.223-.9.603-1.23.737-.228.103-.422.02-.607.117-.265.163-.483.553-.739.682-.213.117-.457.01-.607.182-.054.184-.12.366-.176.56-.454.854-.757 1.968-1.289 2.762-.284.426-.859.857-1.155 1.29-.163.213-.163.514-.316.741-.46.706-1.03 1.424-1.466 2.147-.194.322-.043.781-.185 1.176-.142.352-.837 1.15-1.04 1.53-.148.269.088.548-.068.798-.21.344-.747.584-.979.928-.05.084-.41.7-.437.729v.496c-.079.189-.43.292-.533.502-.122.208-.068.416-.19.612-.246.4-.636.79-.858 1.23l-.242 1.043c-.229.617-.645 1.152-1.048 1.6-.454-.036-.45-.246-.724-.366q-.62-.099-1.225-.19c-.147.125-.287.245-.421.372-.035.713.067 1.39.361 1.966.26.529.825.923.552 1.852-.148.478-.464.978-.681 1.396-.06.297-.117.58-.182.872-.103.292-.385.681-.49.983-.024.158-.034.335-.06.497-.118.246-.436.571-.553.85v.798c-.073.237-.278.634-.426.871-.292.469-1.007.71-1.39 1.146v11.459c.026.01.026.042.042.052.233.177.576.121.86.241m11.08-22.622c.16-.46-.063-1.01.058-1.411.206-.668.682-.871 1.044-1.342.241-.328.492-.81.784-1.05.199-.146.483-.242.627-.438.157-.218.199-.5.361-.732.208-.297.617-.543.794-.859.18-.325.117-.942.37-1.165.167-.162.53-.07.673-.256.347-.44.347-1.205.673-1.65.241-.335.724-.548 1.04-.812.175-.14.098-.492.241-.678.05-.05.2-.07.25-.11a4 4 0 0 0 .674-.932h.3c.126.63.195 1.61 0 2.412-.073.416-.162.852-.24 1.275.058.357-.06 1.401 0 1.605.296 1.017.37 3.782.126 4.923-.136.631-.084 2.552-.371 2.876v.13a5 5 0 0 1-1.528-.064c-.467-.103-1.034.06-1.35.134-.552.13-1.325-.038-1.772-.134-.385-.074-.78.126-1.043.19-.906.222-1.89-.372-2.084-.92-.097-.272.285-.714.371-.992z" style="stroke-width:2.37548"/></svg>