<svg xmlns="http://www.w3.org/2000/svg" width="182.19061" height="200" viewBox="0 0 182.19061 200.00001"><path d="M24.35 10.74A5.37 5.37 0 1 0 19 5.35a5.36 5.36 0 0 0 5.35 5.37z" style="fill:#00a496" transform="matrix(3.7425 0 0 3.7425 .006 0)"/><path d="M40 18.37a2.84 2.84 0 0 0 .44-.7.79.79 0 0 0 0-.73.83.83 0 0 0-.67-.37c-2.31-.32-7.76 2.75-11.67 6.58l-.11.11c8.1 13.34 4.56 30.27-3.56 30.18-3.93 0-6.42-3.33-7.47-7.93a30 30 0 0 1-.53-6.62 39.74 39.74 0 0 1 1.46-8.73C5.82 27.57-2.69 18.57.78 12.76c2-3.36 6.12-3.88 10.65-2.48a25.76 25.76 0 0 1 6 2.84l.24.17a.45.45 0 0 0-.32.23c-.06.32.31.39.58.47-.16.16-.41.32-.57.48v.16c.1.15.37.15.56.3.16-.24.52-.16.79-.09.15-.15.14-.42.33-.59l.61.45a.23.23 0 0 0 0 .2.85.85 0 0 0 .59.22l.85.69a2.68 2.68 0 0 1-.56-.13.89.89 0 0 0-.47-.31l-.16.16h-.18c-.07.16-.25.17-.43.17-.16.16-.23.32-.39.48h-.18a1.79 1.79 0 0 1-.59-.54.26.26 0 0 1 .06-.24c-.36-.07-.63-.07-.84-.38-.17.08-.06.24-.06.32.3.31.17.71.2 1 .32.47.92.3 1.45.21a.38.38 0 0 0 .27.08c.06-.32.21-.56.66-.49L20 16c.17-.08.28.08.46.07.12.32-.12.56-.48.56a.26.26 0 0 0-.06.24 1.16 1.16 0 0 1 .36.86c-.18 0 0 .24-.16.24v.24l-.24.24a1.1 1.1 0 0 0-.52.17v.15c.1.16.37.16.47.31a.26.26 0 0 0-.06.24c-.36 0-.69.25-1.05.18 0-.16-.12-.32.05-.4l-.1-.08c.16-.16 0-.39 0-.63.25-.16.23-.4.48-.56v-.16c-.2-.23-.56-.22-.91-.22-.33.24-.57.49-.9.73v.16c.1.07.11.15.28.15.14-.4.5-.33.87-.25.11.23-.14.39-.21.55a1 1 0 0 0-.69.17h-.27c-.17.08-.15.24-.23.32a1 1 0 0 1-.13.47.46.46 0 0 1-.37-.15.87.87 0 0 0-.72-1c-.5.32.08.79.37 1a.73.73 0 0 0 .15.4c.09.08-.09.15 0 .23-.45-.33-.88-.63-1.28-.91 0-.08 0-.16-.1-.15.09 0 .08-.08.07-.16-.11-.24-.29-.23-.49-.39-.34.09 0 .54-.18.31a14.15 14.15 0 0 0-4.78-2.07 2.89 2.89 0 0 0-.83 0 .75.75 0 0 0-.64.35.81.81 0 0 0 0 .77c.87 2.15 6.26 5.31 11.55 6.76h.15c7.57-13.67 24.07-19.1 28-12 1.92 3.4.31 7.2-3.18 10.4a25.9 25.9 0 0 1-5.49 3.78l-.06-.09c0-.13.17-.23.09-.36-.25-.2-.49.08-.69.29-.06-.22-.09-.51-.15-.73l-.16-.03c-.19 0-.31.26-.54.36.14.24-.1.53-.29.73.06.2.31.32.37.56l-.69.33a.29.29 0 0 0-.16-.13.92.92 0 0 0-.47.42l-1 .42a2.6 2.6 0 0 1 .38-.43 1 1 0 0 0 .5-.27 1.87 1.87 0 0 1-.07-.22l.08-.16c-.11-.13 0-.29.06-.45.06-.16-.18-.35-.25-.57l.09-.16a1.86 1.86 0 0 1 .76-.26.28.28 0 0 1 .18.17c.23-.29.35-.53.73-.57 0-.18-.18-.16-.26-.19-.41.11-.7-.19-1-.31-.56.06-.69.67-.86 1.17a.41.41 0 0 0-.2.21.49.49 0 0 1 .22.67.45.45 0 0 1-.1.14l.07.21c0 .19-.2.21-.28.37-.33 0-.44-.37-.27-.68a.28.28 0 0 0-.18-.17 1.15 1.15 0 0 1-.94-.09c.08-.16-.22-.09-.14-.25l-.22-.09a1.46 1.46 0 0 0-.1-.32 1.39 1.39 0 0 0 .1-.53l-.15-.06c-.19 0-.31.25-.5.27a.26.26 0 0 0-.18-.17c.16-.31.1-.71.34-1 .15.06.33 0 .33.23h.11c.07.21.37.15.55.31a.94.94 0 0 1 .27.68l.15.06c.3-.06.47-.38.63-.69-.06-.41-.16-.73-.22-1.14l-.15-.06c-.11 0-.19 0-.27.18.29.31 0 .59-.18.88-.26 0-.29-.31-.4-.45a.91.91 0 0 0 .18-.69l.12-.23c0-.19-.14-.25-.17-.36a1 1 0 0 1-.36-.33.51.51 0 0 1 .3-.26.89.89 0 0 0 1.24-.14c-.06-.6-.74-.3-1.08-.15a.89.89 0 0 0-.43-.07c-.11.05-.09-.14-.2-.09.5-.23 1-.46 1.41-.69.25-.12.32 0 .36-.07.04-.07.07.12.15.15.26 0 .22-.07.45-.17.09-.34.46-.12.07-.43A11.81 11.81 0 0 0 40 18.37Zm-20.49-1v.22l.27.21H20c.23-.11.21-.54-.06-.53-.27.01-.13-.11-.25-.11zm-1-2.14a.43.43 0 0 0 .57.2.38.38 0 0 0 .13-.09c0-.12-.15-.12-.17-.24-.02-.12-.45-.1-.56.16zM17 18.42c-.13-.31 0-.55 0-.87-.1-.15-.28-.15-.44 0l-.16.16a1.39 1.39 0 0 0 .44.78c.09.01.16.01.16-.07Zm-.41-4.73c.19.16.44 0 .6-.16l-.39-.31h-.17c-.16.16-.32.32 0 .47zm-.21 1.88c0 .1.13.1.24.09.42-.31.49-.71-.1-.9-.43.11-.39.51-.13.81zm-.59.66h-.18c-.25.16-.31.48-.56.64-.26 0-.34.16-.5.32 0 .08 0 .16.11.16a4.38 4.38 0 0 0 1.44.13c.51-.24.28-.71.06-1.1a.55.55 0 0 0-.36-.15ZM25.31 31v-.15H24.1a29.34 29.34 0 0 0-1.1 7.62 15.8 15.8 0 0 0 .59 5.16 2.57 2.57 0 0 0 .39.73.75.75 0 0 0 .62.37c.15 0 .38 0 .66-.39 1.36-1.8 1.42-8.03.05-13.34zM21.2 16.84a.45.45 0 0 0-.28-.07.26.26 0 0 0-.06.24h.27c-.01-.09.08-.09.07-.17zm-2.87 2.64c-.45-.12-.41.27-.38.53a.84.84 0 0 0 .57-.14.51.51 0 0 0-.19-.39zm1.51.47c-.36 0-.41.32-.67.41-.06.31.31.39.56.22.25-.17.4-.4.11-.58zm.42 1.12a.25.25 0 0 0-.16.27c.07.05.08.16.26.1a.24.24 0 0 1 .12 0c.1-.16.07-.44-.22-.37zm1-.35c.17-.09.35-.09.51-.25-.1-.16-.13-.39-.32-.47h-.17c-.16.24-.32.4-.2.64.08 0 .16 0 .17.08zm-.57-1.18a.26.26 0 0 0-.06.24h.27v-.15c0-.09-.13-.09-.22-.09zm.88-.82c.07-.16-.21-.32-.23-.47-.26 0-.54-.07-.59.24a.29.29 0 0 0 0 .41.24.24 0 0 0 .11.06.56.56 0 0 0 .67-.24zm1.82-.72c-.17.08-.15.24-.14.4a.4.4 0 0 0 .28.07c.35 0 .23-.32 0-.47zm-1 0h-.27c-.05.4.23.55.52.7h.17c.06-.34-.22-.49-.42-.7Zm-3.87-3.89c.11 0 .13-.07.2-.11l-.52-.36v.23zM22 16.76a2.6 2.6 0 0 1-.21.55.8.8 0 0 0 .39.31.83.83 0 0 0 .67-.3l-.6-.54zm-3.6 4.64c-.09 0-.1-.08-.11-.16a.41.41 0 0 1-.37-.15.26.26 0 0 1 .06-.24c-.37-.15-.3-.39-.34-.7l-.2-.15c-.09 0-.18 0-.17.09v.39a1.89 1.89 0 0 0-.27.2c.35.28.71.57 1.07.88zm1.43.92c0-.08-.1-.16-.11-.24v-.15c-.28-.16-.74-.31-1-.06a.74.74 0 0 0 0 .21l.45.41a1.13 1.13 0 0 0 .65-.17zm15.22 4-.23-.09-.34.15-.13.24c0 .28.43.49.56.22.13-.27.18-.07.24-.19zm2.26.28a.43.43 0 0 0-.44.42.68.68 0 0 0 0 .14c.11.05.18-.08.29 0 0-.16.29-.33.12-.54zm-2.09-2.8c.33 0 .48.29.77.4.29.11.27-.17.2-.39l-.06-.22a1.53 1.53 0 0 0-.9 0c-.04.1-.08.18-.01.21zm4.39 1.86c-.23.1-.21.39-.14.61l.46-.2.08-.16c-.07-.21-.13-.43-.4-.25ZM38 24.6c-.09 0-.15.06-.2.16.08.52.4.77.85.34.15-.44-.22-.59-.65-.5Zm-.31-.84.08-.15c0-.3-.28-.5-.31-.79.13-.24 0-.38 0-.59-.07 0-.15-.06-.19 0a4.17 4.17 0 0 0-.79 1.2c0 .56.5.58 1 .57a.49.49 0 0 0 .25-.24zm-3.08 4.46a.37.37 0 0 0 .19-.2.26.26 0 0 0-.18-.17l-.12.23c.11 0 .07.11.15.14zm-1.38-3.7a1 1 0 0 1 .17-.65c.28.11.69.28.32.67a.54.54 0 0 1-.45 0zm-.74 1.05c.16-.32-.09-.51-.05-.78-.25-.2-.49.09-.46.38.03.29.21.55.55.4zm-1.19-.16a.27.27 0 0 0-.17-.26.18.18 0 0 0-.21.17c0 .17 0 .06-.05.11s.38.27.47 0zm-.15 1a1.32 1.32 0 0 0 0 .56c.19 0 .41.07.57 0l.08-.16c-.14-.25-.21-.46-.47-.47 0 .11-.07.19-.14.16zm1.3.05a.26.26 0 0 0-.18-.16l-.12.23.15.06c.11.07.15 0 .19-.09zm.32 1.16c.11.14.38 0 .53 0 .12-.23.31-.44.06-.64a.31.31 0 0 0-.39-.16l-.09.06a.58.58 0 0 0-.07.78zm-.2 2c0-.19-.14-.25-.29-.31a.36.36 0 0 0-.19.21c-.16.31.17.35.4.25zm.47-.89.12-.23c-.33-.23-.59-.05-.86.12l-.08.16c.29.22.56 0 .86-.05zM38.83 27l.22.09-.57.29c0-.08-.06-.13 0-.23zm-4.48 2a5.48 5.48 0 0 1-.4-.44.73.73 0 0 0-.45.19.85.85 0 0 0 0 .73l.77-.27a.9.9 0 0 1 .08-.21Zm-2.42-5.34c0-.08.11-.05.19 0a.39.39 0 0 1 .31-.26.26.26 0 0 1 .18.17c.31-.26.49-.09.78 0l.23-.1c0-.08.08-.15 0-.18l-.37-.15v-.34l-1.25.54a.49.49 0 0 0 0 .28zm-1.49.82h.26l.15.06c.26-.17.61-.51.51-.83l-.2-.08-.58.21a1 1 0 0 0-.14.6z" style="fill:#005bac" transform="matrix(3.7425 0 0 3.7425 .006 0)"/></svg>